<svg width="133" height="133" viewBox="0 0 133 133" fill="none" xmlns="http://www.w3.org/2000/svg">
<g filter="url(#filter0_d)">
<circle cx="66.5" cy="62.5" r="62.5" fill="#3D3D3D"/>
<path d="M91.7573 71.1747C87.8673 67.2849 83.2373 64.4053 78.1857 62.6621C83.5961 58.9357 87.1507 52.6992 87.1507 45.6473C87.1507 34.2624 77.8883 25 66.5033 25C55.1184 25 45.856 34.2624 45.856 45.6473C45.856 52.6992 49.4106 58.9357 54.8211 62.6621C49.7695 64.4053 45.1395 67.2849 41.2496 71.1747C34.504 77.9203 30.7891 86.889 30.7891 96.4286H36.3694C36.3694 79.8126 49.8874 66.2946 66.5033 66.2946C83.1193 66.2946 96.6373 79.8126 96.6373 96.4286H102.218C102.218 86.889 98.5027 77.9203 91.7573 71.1747ZM51.4364 45.6473C51.4364 37.3393 58.1955 30.5804 66.5033 30.5804C74.8112 30.5804 81.5703 37.3393 81.5703 45.6473C81.5703 53.9554 74.8112 60.7143 66.5033 60.7143C58.1955 60.7143 51.4364 53.9554 51.4364 45.6473Z" fill="#56CCF2"/>
<path d="M91.7573 71.1747C87.8673 67.2849 83.2373 64.4053 78.1857 62.6621C83.5961 58.9357 87.1507 52.6992 87.1507 45.6473C87.1507 34.2624 77.8883 25 66.5033 25C55.1184 25 45.856 34.2624 45.856 45.6473C45.856 52.6992 49.4106 58.9357 54.8211 62.6621C49.7695 64.4053 45.1395 67.2849 41.2496 71.1747C34.504 77.9203 30.7891 86.889 30.7891 96.4286H36.3694C36.3694 79.8126 49.8874 66.2946 66.5033 66.2946C83.1193 66.2946 96.6373 79.8126 96.6373 96.4286H102.218C102.218 86.889 98.5027 77.9203 91.7573 71.1747ZM51.4364 45.6473C51.4364 37.3393 58.1955 30.5804 66.5033 30.5804C74.8112 30.5804 81.5703 37.3393 81.5703 45.6473C81.5703 53.9554 74.8112 60.7143 66.5033 60.7143C58.1955 60.7143 51.4364 53.9554 51.4364 45.6473Z" fill="white" fill-opacity="0.5"/>
<path d="M91.7573 71.1747C87.8673 67.2849 83.2373 64.4053 78.1857 62.6621C83.5961 58.9357 87.1507 52.6992 87.1507 45.6473C87.1507 34.2624 77.8883 25 66.5033 25C55.1184 25 45.856 34.2624 45.856 45.6473C45.856 52.6992 49.4106 58.9357 54.8211 62.6621C49.7695 64.4053 45.1395 67.2849 41.2496 71.1747C34.504 77.9203 30.7891 86.889 30.7891 96.4286H36.3694C36.3694 79.8126 49.8874 66.2946 66.5033 66.2946C83.1193 66.2946 96.6373 79.8126 96.6373 96.4286H102.218C102.218 86.889 98.5027 77.9203 91.7573 71.1747ZM51.4364 45.6473C51.4364 37.3393 58.1955 30.5804 66.5033 30.5804C74.8112 30.5804 81.5703 37.3393 81.5703 45.6473C81.5703 53.9554 74.8112 60.7143 66.5033 60.7143C58.1955 60.7143 51.4364 53.9554 51.4364 45.6473Z" fill="white" fill-opacity="0.5"/>
<path d="M91.7573 71.1747C87.8673 67.2849 83.2373 64.4053 78.1857 62.6621C83.5961 58.9357 87.1507 52.6992 87.1507 45.6473C87.1507 34.2624 77.8883 25 66.5033 25C55.1184 25 45.856 34.2624 45.856 45.6473C45.856 52.6992 49.4106 58.9357 54.8211 62.6621C49.7695 64.4053 45.1395 67.2849 41.2496 71.1747C34.504 77.9203 30.7891 86.889 30.7891 96.4286H36.3694C36.3694 79.8126 49.8874 66.2946 66.5033 66.2946C83.1193 66.2946 96.6373 79.8126 96.6373 96.4286H102.218C102.218 86.889 98.5027 77.9203 91.7573 71.1747ZM51.4364 45.6473C51.4364 37.3393 58.1955 30.5804 66.5033 30.5804C74.8112 30.5804 81.5703 37.3393 81.5703 45.6473C81.5703 53.9554 74.8112 60.7143 66.5033 60.7143C58.1955 60.7143 51.4364 53.9554 51.4364 45.6473Z" fill="url(#paint0_linear)"/>
</g>
<defs>
<filter id="filter0_d" x="0" y="0" width="133" height="133" filterUnits="userSpaceOnUse" color-interpolation-filters="sRGB">
<feFlood flood-opacity="0" result="BackgroundImageFix"/>
<feColorMatrix in="SourceAlpha" type="matrix" values="0 0 0 0 0 0 0 0 0 0 0 0 0 0 0 0 0 0 127 0" result="hardAlpha"/>
<feOffset dy="4"/>
<feGaussianBlur stdDeviation="2"/>
<feComposite in2="hardAlpha" operator="out"/>
<feColorMatrix type="matrix" values="0 0 0 0 0 0 0 0 0 0 0 0 0 0 0 0 0 0 0.25 0"/>
<feBlend mode="normal" in2="BackgroundImageFix" result="effect1_dropShadow"/>
<feBlend mode="normal" in="SourceGraphic" in2="effect1_dropShadow" result="shape"/>
</filter>
<linearGradient id="paint0_linear" x1="66.5033" y1="25" x2="66.5033" y2="96.4286" gradientUnits="userSpaceOnUse">
<stop stop-color="#4FA2C4"/>
<stop offset="1" stop-color="#4FA2C4" stop-opacity="0"/>
</linearGradient>
</defs>
</svg>
