<svg width="20" height="18" viewBox="0 0 20 18" fill="none" xmlns="http://www.w3.org/2000/svg">
<path d="M18.125 3.70833H10.625L8.125 0.875H1.875C1.37772 0.875 0.900805 1.09888 0.549175 1.4974C0.197544 1.89591 0 2.43641 0 3L0 15.75C0 16.3136 0.197544 16.8541 0.549175 17.2526C0.900805 17.6511 1.37772 17.875 1.875 17.875H18.125C18.6223 17.875 19.0992 17.6511 19.4508 17.2526C19.8025 16.8541 20 16.3136 20 15.75V5.83333C20 5.26975 19.8025 4.72925 19.4508 4.33073C19.0992 3.93222 18.6223 3.70833 18.125 3.70833ZM14.043 11.1458C14.043 11.3337 13.9771 11.5139 13.8599 11.6467C13.7427 11.7795 13.5837 11.8542 13.418 11.8542H10.918V14.6875C10.918 14.8754 10.8521 15.0555 10.7349 15.1884C10.6177 15.3212 10.4587 15.3958 10.293 15.3958H9.66797C9.50221 15.3958 9.34324 15.3212 9.22603 15.1884C9.10882 15.0555 9.04297 14.8754 9.04297 14.6875V11.8542H6.54297C6.37721 11.8542 6.21824 11.7795 6.10103 11.6467C5.98382 11.5139 5.91797 11.3337 5.91797 11.1458V10.4375C5.91797 10.2496 5.98382 10.0695 6.10103 9.93663C6.21824 9.80379 6.37721 9.72917 6.54297 9.72917H9.04297V6.89583C9.04297 6.70797 9.10882 6.5278 9.22603 6.39497C9.34324 6.26213 9.50221 6.1875 9.66797 6.1875H10.293C10.4587 6.1875 10.6177 6.26213 10.7349 6.39497C10.8521 6.5278 10.918 6.70797 10.918 6.89583V9.72917H13.418C13.5837 9.72917 13.7427 9.80379 13.8599 9.93663C13.9771 10.0695 14.043 10.2496 14.043 10.4375V11.1458Z" fill="white"/>
</svg>
