<svg width="26" height="26" xmlns="http://www.w3.org/2000/svg">

 <g>
  <title>Layer 1</title>
  <circle id="svg_1" fill="#5a19a0" r="13" cy="13" cx="13"/>
  <path id="svg_2" fill="white" d="m18.0312,8.40939c0,-0.12768 -0.1045,-0.23214 -0.2322,-0.23214l-1.9152,0.0087l-2.8843,3.43865l-2.8815,-3.43575l-1.91808,-0.0087c-0.12768,0 -0.23215,0.10156 -0.23215,0.23214c0,0.05513 0.02032,0.10737 0.05514,0.15089l3.77519,4.49782l-3.77519,4.4948c-0.03507,0.0425 -0.05452,0.0958 -0.05514,0.1509c0,0.1277 0.10447,0.2322 0.23215,0.2322l1.91808,-0.0088l2.8815,-3.4386l2.8814,3.4357l1.9152,0.0088c0.1277,0 0.2322,-0.1016 0.2322,-0.2322c0,-0.0551 -0.0203,-0.1074 -0.0552,-0.1509l-3.7694,-4.4948l3.7752,-4.49782c0.0349,-0.04062 0.0523,-0.09576 0.0523,-0.15089z"/>
  <path id="svg_3" fill="white" d="m13,0c-7.17902,0 -13,5.82098 -13,13c0,7.179 5.82098,13 13,13c7.179,0 13,-5.821 13,-13c0,-7.17902 -5.821,-13 -13,-13zm0,23.7946c-5.96027,0 -10.79464,-4.8343 -10.79464,-10.7946c0,-5.96027 4.83437,-10.79464 10.79464,-10.79464c5.9603,0 10.7946,4.83437 10.7946,10.79464c0,5.9603 -4.8343,10.7946 -10.7946,10.7946z"/>
 </g>
</svg>