<svg width="26" height="26" viewBox="0 0 26 26" fill="none" xmlns="http://www.w3.org/2000/svg">
<circle cx="13" cy="13" r="13" fill="#1162DB"/>
<path d="M18.0312 8.40939C18.0312 8.28171 17.9267 8.17725 17.799 8.17725L15.8838 8.18595L12.9995 11.6246L10.118 8.18885L8.19992 8.18015C8.07224 8.18015 7.96777 8.28171 7.96777 8.41229C7.96777 8.46742 7.98809 8.51966 8.02291 8.56318L11.7981 13.061L8.02291 17.5558C7.98784 17.5983 7.96839 17.6516 7.96777 17.7067C7.96777 17.8344 8.07224 17.9389 8.19992 17.9389L10.118 17.9301L12.9995 14.4915L15.8809 17.9272L17.7961 17.936C17.9238 17.936 18.0283 17.8344 18.0283 17.7038C18.0283 17.6487 18.008 17.5964 17.9731 17.5529L14.2037 13.0581L17.9789 8.56028C18.0138 8.51966 18.0312 8.46452 18.0312 8.40939Z" fill="white"/>
<path d="M13 0C5.82098 0 0 5.82098 0 13C0 20.179 5.82098 26 13 26C20.179 26 26 20.179 26 13C26 5.82098 20.179 0 13 0ZM13 23.7946C7.03973 23.7946 2.20536 18.9603 2.20536 13C2.20536 7.03973 7.03973 2.20536 13 2.20536C18.9603 2.20536 23.7946 7.03973 23.7946 13C23.7946 18.9603 18.9603 23.7946 13 23.7946Z" fill="white"/>
</svg>
