<svg id="Layer_1" height="512" viewBox="0 0 128 128" width="512" xmlns="http://www.w3.org/2000/svg" data-name="Layer 1"><path d="m28.487 53.8h53.333a1.75 1.75 0 0 0 0-3.5h-3.5v-26.25a1.75 1.75 0 0 0 -1.75-1.75h-6.821v-6.051a1.75 1.75 0 0 0 -1.749-1.749h-8.566a1.75 1.75 0 0 0 -1.75 1.75v21.084h-5.067v-13.284a1.75 1.75 0 0 0 -1.75-1.75h-8.567a1.75 1.75 0 0 0 -1.75 1.75v6.59h-6.815a1.751 1.751 0 0 0 -1.75 1.75v17.91h-3.5a1.75 1.75 0 1 0 0 3.5zm46.328-28v24.5h-5.066v-24.5zm-13.631-7.8h5.065v32.3h-5.065zm-3.5 22.835v9.465h-5.067v-9.466zm-13.632-15.035h5.065v24.5h-5.065zm-8.567 8.34h5.067v16.16h-5.067z"/><path d="m49.863 86.089h-32.227a1.75 1.75 0 1 0 0 3.5h32.227a1.75 1.75 0 0 0 0-3.5z"/><path d="m49.86 95.563h-32.227a1.75 1.75 0 1 0 0 3.5h32.227a1.75 1.75 0 0 0 0-3.5z"/><path d="m49.86 105.038h-32.227a1.75 1.75 0 1 0 0 3.5h32.227a1.75 1.75 0 0 0 0-3.5z"/><path d="m49.863 67.141h-32.227a1.75 1.75 0 1 0 0 3.5h32.227a1.75 1.75 0 0 0 0-3.5z"/><path d="m17.633 80.114h32.227a1.75 1.75 0 0 0 0-3.5h-32.227a1.75 1.75 0 1 0 0 3.5z"/><path d="m121.741 114.458-11.841-11.846a1.751 1.751 0 0 0 -2.475 0l-.922.922-.939-.94v-1.462a25.837 25.837 0 0 0 0-31.933v-62.699a1.751 1.751 0 0 0 -1.75-1.75h-97.314a1.75 1.75 0 0 0 -1.75 1.75v115a1.75 1.75 0 0 0 1.75 1.75h97.31a1.751 1.751 0 0 0 1.75-1.75v-8.657l8.9 8.9a5.15 5.15 0 1 0 7.283-7.283zm-36.576-6.874a22.419 22.419 0 1 1 22.419-22.418 22.444 22.444 0 0 1 -22.419 22.418zm-76.915 12.166v-111.5h93.81v57.284a25.919 25.919 0 1 0 0 39.263v14.953zm111.017-.484a1.653 1.653 0 0 1 -2.334 0l-10.609-10.608 1.405-1.405.008-.007.007-.008.914-.914 10.609 10.608a1.65 1.65 0 0 1 0 2.333z"/><path d="m90.758 67.09a1.75 1.75 0 1 0 -1.037 3.343 15.354 15.354 0 0 1 10.863 14.733 1.75 1.75 0 0 0 3.5 0 18.838 18.838 0 0 0 -13.326-18.076z"/></svg>