<svg width="24px" height="24px" viewBox="0 0 24 24" id="magicoon-Regular" xmlns="http://www.w3.org/2000/svg" fill="none">
	<title>thumbtack</title>
	<g id="thumbtack-Regular">
	<path id="thumbtack-Regular-2" fill="white" data-name="thumbtack-Regular" class="cls-1" d="M17.41,9.349l-.66-.66V6.28a5.768,5.768,0,0,0,1-3.28A.75.75,0,0,0,17,2.25H7A.75.75,0,0,0,6.25,3a5.765,5.765,0,0,0,1,3.281V8.689l-.66.66A7.939,7.939,0,0,0,4.25,15a.751.751,0,0,0,.75.75h6.25V21a.75.75,0,0,0,1.5,0V15.749H19a.75.75,0,0,0,.75-.75A7.939,7.939,0,0,0,17.41,9.349Zm-11.617,4.9A6.44,6.44,0,0,1,7.65,10.41l.88-.88A.747.747,0,0,0,8.75,9V6a.747.747,0,0,0-.22-.53A3.482,3.482,0,0,1,7.816,3.75h8.368a3.494,3.494,0,0,1-.714,1.72.747.747,0,0,0-.22.53V9a.747.747,0,0,0,.22.53l.88.88a6.443,6.443,0,0,1,1.857,3.84Z"/>
	</g>
</svg>
