<svg width="24px" height="24px" viewBox="0 0 24 24" id="magicoon-Filled" xmlns="http://www.w3.org/2000/svg">
	<defs><style>.cls-1{fill:white;}</style></defs>
	<title>thumbtack</title>
	<g id="thumbtack-Filled">
	<path id="thumbtack-Filled-2" data-name="thumbtack-Filled" class="cls-1" d="M19.5,15a.5.5,0,0,1-.5.5H13V21a1,1,0,0,1-2,0V15.5H5a.5.5,0,0,1-.5-.5A7.69,7.69,0,0,1,6.767,9.526L7.5,8.793v-2.6A5.487,5.487,0,0,1,6.5,3,.5.5,0,0,1,7,2.5H17a.5.5,0,0,1,.5.5,5.49,5.49,0,0,1-1,3.191v2.6l.733.733A7.69,7.69,0,0,1,19.5,15Z"/>
	</g>
</svg>
