<svg width="16" height="15" viewBox="0 0 16 15" fill="none" xmlns="http://www.w3.org/2000/svg">
<path d="M14.5416 5.28193L10.0448 4.59758L8.0347 0.330127C7.97979 0.213287 7.88947 0.118702 7.77789 0.0612089C7.49807 -0.0834504 7.15802 0.037099 7.01811 0.330127L5.00796 4.59758L0.511254 5.28193C0.387281 5.30047 0.273933 5.36167 0.187151 5.45441C0.082237 5.56733 0.0244245 5.71924 0.026417 5.87678C0.0284096 6.03431 0.0900441 6.18457 0.197778 6.29454L3.45121 9.61614L2.68257 14.3064C2.66454 14.4156 2.67607 14.5278 2.71585 14.6304C2.75563 14.733 2.82206 14.8218 2.90761 14.8869C2.99317 14.952 3.09442 14.9906 3.19989 14.9985C3.30536 15.0064 3.41083 14.9831 3.50434 14.9314L7.5264 12.717L11.5485 14.9314C11.6583 14.9926 11.7858 15.013 11.908 14.9908C12.2162 14.9352 12.4234 14.6291 12.3702 14.3064L11.6016 9.61614L14.855 6.29454C14.9436 6.20367 15.002 6.08497 15.0197 5.95515C15.0676 5.63059 14.8515 5.33015 14.5416 5.28193Z" fill="white"/>
</svg>
