<svg width="16" height="15" viewBox="0 0 16 15" fill="none" xmlns="http://www.w3.org/2000/svg">
<path d="M7.77789 0.0612089C7.88947 0.118702 7.97979 0.213287 8.0347 0.330127L7.77789 0.0612089ZM7.77789 0.0612089C7.49807 -0.0834504 7.15802 0.037099 7.01811 0.330127L7.77789 0.0612089ZM9.81868 4.70411L9.87547 4.82468L10.0072 4.84473L14.5031 5.52896C14.5032 5.52897 14.5033 5.52899 14.5034 5.529C14.6704 5.55515 14.8013 5.72276 14.7724 5.91871L14.772 5.92136C14.7615 5.99827 14.7271 6.06749 14.6762 6.11982C14.6761 6.1199 14.6761 6.11999 14.676 6.12007L11.423 9.44121L11.3344 9.53165L11.3549 9.65657L12.1235 14.3469L12.1236 14.3471C12.156 14.5444 12.0282 14.715 11.8636 14.7448L11.8632 14.7448C11.7974 14.7568 11.7288 14.7457 11.6702 14.7131L11.669 14.7124L7.64698 12.498L7.5264 12.4317L7.40583 12.498L3.38376 14.7124L3.38337 14.7127C3.33197 14.7411 3.27495 14.7534 3.21851 14.7492C3.16204 14.745 3.10672 14.7242 3.05895 14.6879C3.01107 14.6515 2.97244 14.6006 2.94894 14.54C2.92542 14.4793 2.91845 14.4124 2.92922 14.3472L2.92928 14.3469L3.69791 9.65657L3.71839 9.53165L3.62981 9.44121L0.376378 6.11961L0.376362 6.11959C0.314797 6.05675 0.277597 5.96851 0.276397 5.87362C0.275199 5.77888 0.310045 5.6896 0.369996 5.6249C0.419946 5.57167 0.482605 5.53899 0.548242 5.52918L0.548869 5.52908L5.04558 4.84473L5.17733 4.82468L5.23413 4.70411L7.24371 0.437846C7.2438 0.437673 7.24388 0.437499 7.24396 0.437326C7.32656 0.265024 7.51567 0.207079 7.66309 0.283289L7.66338 0.283441C7.72446 0.314912 7.77626 0.367977 7.80843 0.436448L7.80853 0.43666L9.81868 4.70411ZM3.50434 14.9314L7.5264 12.717L0.511254 5.28193C0.387281 5.30047 0.273933 5.36167 0.187151 5.45441C0.082237 5.56733 0.0244245 5.71924 0.026417 5.87678C0.0284096 6.03431 0.0900441 6.18457 0.197778 6.29454L3.45121 9.61614L2.68257 14.3064C2.66454 14.4156 2.67607 14.5278 2.71585 14.6304C2.75563 14.733 2.82206 14.8218 2.90761 14.8869C2.99317 14.952 3.09442 14.9906 3.19989 14.9985C3.30536 15.0064 3.41083 14.9831 3.50434 14.9314Z" fill="#FA9334" stroke="white" stroke-width="0.5"/>
</svg>
