<svg width="16" height="16" viewBox="0 0 16 16" fill="none" xmlns="http://www.w3.org/2000/svg">
<path d="M3.08915 15.8794C3.18006 15.9488 3.28764 15.99 3.3997 15.9984C3.51176 16.0068 3.62382 15.982 3.72318 15.9268L7.99662 13.5648L3.24091 15.6807C3.18757 15.6399 3.14469 15.5832 3.11862 15.5157C3.09251 15.4481 3.08476 15.3735 3.09673 15.3007L3.09678 15.3004L3.91346 10.2975L3.93379 10.173L3.84567 10.0826L0.388898 6.53959L0.388881 6.53957C0.320466 6.46946 0.279197 6.3711 0.277865 6.26542C0.276536 6.15988 0.315196 6.06037 0.38182 5.9882C0.437282 5.92882 0.506989 5.89227 0.580142 5.88129L0.580783 5.88119L5.35853 5.15122L5.49043 5.13107L5.5471 5.01028L7.68233 0.45951C7.68241 0.459335 7.68249 0.45916 7.68258 0.458985C7.77423 0.266946 7.98447 0.201969 8.14866 0.287185L8.14896 0.28734C8.21693 0.322501 8.27451 0.381751 8.31027 0.458128L8.31036 0.458326L10.4461 5.01028L10.5028 5.13107L10.6347 5.15122L15.4117 5.88106C15.4118 5.88108 15.4119 5.8811 15.412 5.88112C15.5976 5.91032 15.743 6.09733 15.7109 6.3158L15.7105 6.31852C15.6989 6.40437 15.6606 6.48153 15.6041 6.5398C15.604 6.53987 15.604 6.53993 15.6039 6.54L12.1476 10.0826L12.0595 10.173L12.0798 10.2975L12.8964 15.3004L12.8965 15.3007C12.9325 15.5204 12.7907 15.711 12.6075 15.7442L12.6072 15.7442C12.5339 15.7576 12.4575 15.7452 12.3922 15.7087L12.391 15.708L8.11755 13.346L7.99662 13.2792L7.87568 13.346L3.60224 15.708L3.60185 15.7082C3.54456 15.74 3.48111 15.7538 3.41845 15.7491C3.35546 15.7444 3.29395 15.7212 3.24092 15.6807L3.08915 15.8794ZM3.08915 15.8794C2.99826 15.8099 2.92767 15.7152 2.88541 15.6058C2.84314 15.4963 2.83089 15.3766 2.85005 15.2602L3.08915 15.8794ZM15.7833 6.71418C15.8774 6.61725 15.9394 6.49063 15.9582 6.35216C16.0091 6.00596 15.7795 5.68549 15.4503 5.63406L15.7833 6.71418Z" fill="#FA9334" stroke="white" stroke-width="0.5"/>
</svg>
