<svg width="16" height="15" viewBox="0 0 16 15" fill="none" xmlns="http://www.w3.org/2000/svg">
<path fill-rule="evenodd" clip-rule="evenodd" d="M7.52637 1.40625C5.9102 1.40625 4.36024 2.04827 3.21744 3.19107C2.07464 4.33387 1.43262 5.88384 1.43262 7.5C1.43262 9.11616 2.07464 10.6661 3.21744 11.8089C4.36024 12.9517 5.9102 13.5938 7.52637 13.5938C9.14253 13.5938 10.6925 12.9517 11.8353 11.8089C12.9781 10.6661 13.6201 9.11616 13.6201 7.5C13.6201 5.88384 12.9781 4.33387 11.8353 3.19107C10.6925 2.04827 9.14253 1.40625 7.52637 1.40625ZM0.0263672 7.5C0.0263672 5.51088 0.816544 3.60322 2.22307 2.1967C3.62959 0.790176 5.53724 0 7.52637 0C9.51549 0 11.4231 0.790176 12.8297 2.1967C14.2362 3.60322 15.0264 5.51088 15.0264 7.5C15.0264 9.48912 14.2362 11.3968 12.8297 12.8033C11.4231 14.2098 9.51549 15 7.52637 15C5.53724 15 3.62959 14.2098 2.22307 12.8033C0.816544 11.3968 0.0263672 9.48912 0.0263672 7.5ZM6.12012 7.26562C6.12012 7.07914 6.1942 6.9003 6.32606 6.76844C6.45792 6.63658 6.63676 6.5625 6.82324 6.5625H7.76074C7.94722 6.5625 8.12606 6.63658 8.25793 6.76844C8.38979 6.9003 8.46387 7.07914 8.46387 7.26562V9.84375H8.69824C8.88472 9.84375 9.06356 9.91783 9.19543 10.0497C9.32729 10.1816 9.40137 10.3604 9.40137 10.5469C9.40137 10.7334 9.32729 10.9122 9.19543 11.0441C9.06356 11.1759 8.88472 11.25 8.69824 11.25H6.82324C6.63676 11.25 6.45792 11.1759 6.32606 11.0441C6.1942 10.9122 6.12012 10.7334 6.12012 10.5469C6.12012 10.3604 6.1942 10.1816 6.32606 10.0497C6.45792 9.91783 6.63676 9.84375 6.82324 9.84375H7.05762V7.96875H6.82324C6.63676 7.96875 6.45792 7.89467 6.32606 7.76281C6.1942 7.63095 6.12012 7.45211 6.12012 7.26562ZM7.52637 5.625C7.77501 5.625 8.01346 5.52623 8.18928 5.35041C8.3651 5.1746 8.46387 4.93614 8.46387 4.6875C8.46387 4.43886 8.3651 4.2004 8.18928 4.02459C8.01346 3.84877 7.77501 3.75 7.52637 3.75C7.27773 3.75 7.03927 3.84877 6.86345 4.02459C6.68764 4.2004 6.58887 4.43886 6.58887 4.6875C6.58887 4.93614 6.68764 5.1746 6.86345 5.35041C7.03927 5.52623 7.27773 5.625 7.52637 5.625Z" fill="white"/>
</svg>
