<svg width="17" height="16" viewBox="0 0 17 16" fill="none" xmlns="http://www.w3.org/2000/svg">
<ellipse cx="8.5" cy="8" rx="8.5" ry="8" fill="#3F77CA"/>
<path fill-rule="evenodd" clip-rule="evenodd" d="M8.5 1.5C6.66835 1.5 4.91172 2.18482 3.61654 3.40381C2.32137 4.62279 1.59375 6.27609 1.59375 8C1.59375 9.72391 2.32137 11.3772 3.61654 12.5962C4.91172 13.8152 6.66835 14.5 8.5 14.5C10.3317 14.5 12.0883 13.8152 13.3835 12.5962C14.6786 11.3772 15.4062 9.72391 15.4062 8C15.4062 6.27609 14.6786 4.62279 13.3835 3.40381C12.0883 2.18482 10.3317 1.5 8.5 1.5ZM0 8C0 5.87827 0.895533 3.84344 2.48959 2.34315C4.08365 0.842855 6.24566 0 8.5 0C10.7543 0 12.9163 0.842855 14.5104 2.34315C16.1045 3.84344 17 5.87827 17 8C17 10.1217 16.1045 12.1566 14.5104 13.6569C12.9163 15.1571 10.7543 16 8.5 16C6.24566 16 4.08365 15.1571 2.48959 13.6569C0.895533 12.1566 0 10.1217 0 8ZM6.90625 7.75C6.90625 7.55109 6.99021 7.36032 7.13965 7.21967C7.28909 7.07902 7.49178 7 7.70312 7H8.76562C8.97697 7 9.17966 7.07902 9.3291 7.21967C9.47854 7.36032 9.5625 7.55109 9.5625 7.75V10.5H9.82812C10.0395 10.5 10.2422 10.579 10.3916 10.7197C10.541 10.8603 10.625 11.0511 10.625 11.25C10.625 11.4489 10.541 11.6397 10.3916 11.7803C10.2422 11.921 10.0395 12 9.82812 12H7.70312C7.49178 12 7.28909 11.921 7.13965 11.7803C6.99021 11.6397 6.90625 11.4489 6.90625 11.25C6.90625 11.0511 6.99021 10.8603 7.13965 10.7197C7.28909 10.579 7.49178 10.5 7.70312 10.5H7.96875V8.5H7.70312C7.49178 8.5 7.28909 8.42098 7.13965 8.28033C6.99021 8.13968 6.90625 7.94891 6.90625 7.75ZM8.5 6C8.78179 6 9.05204 5.89464 9.2513 5.70711C9.45056 5.51957 9.5625 5.26522 9.5625 5C9.5625 4.73478 9.45056 4.48043 9.2513 4.29289C9.05204 4.10536 8.78179 4 8.5 4C8.21821 4 7.94796 4.10536 7.7487 4.29289C7.54944 4.48043 7.4375 4.73478 7.4375 5C7.4375 5.26522 7.54944 5.51957 7.7487 5.70711C7.94796 5.89464 8.21821 6 8.5 6Z" fill="white"/>
</svg>
