<?xml version="1.0" encoding="iso-8859-1"?>
<!-- Generator: Adobe Illustrator 19.0.0, SVG Export Plug-In . SVG Version: 6.00 Build 0)  -->
<svg version="1.1" id="Capa_1" xmlns="http://www.w3.org/2000/svg" xmlns:xlink="http://www.w3.org/1999/xlink" x="0px" y="0px"
	 viewBox="0 0 508 508" style="enable-background:new 0 0 508 508;" xml:space="preserve">
<g>
	<g>
		<path d="M266.8,192.9c-19.7,0-38.3,7.7-52.2,21.6c-14,14-21.6,32.5-21.6,52.2c0,4.5,3.7,8.2,8.2,8.2s8.2-3.7,8.2-8.2
			c0-15.3,6-29.8,16.8-40.6c10.9-10.9,25.3-16.8,40.6-16.8c4.5,0,8.2-3.7,8.2-8.2S271.3,192.9,266.8,192.9z"/>
	</g>
</g>
<g>
	<g>
		<path d="M498.4,451.9L426.5,380c-10.8-10.8-27.2-12.4-39.8-5l-9.8-9.8c21.6-24.4,33.6-55.4,33.6-88.3c0-35.6-13.9-69.1-39.1-94.4
			c-3.3-3.3-6.7-6.3-10.2-9.2v-124H131.4V0H0v49.3v16.4v262.7h153.8c6.6,15.9,16.3,30.5,28.9,43c25.2,25.2,58.7,39.1,94.3,39.1
			c32.9,0,63.9-11.9,88.3-33.6l9.8,9.8c-7.4,12.6-5.8,29,5,39.8l71.9,71.9c6.2,6.2,14.4,9.6,23.2,9.6c8.8,0,17-3.4,23.2-9.6
			s9.6-14.4,9.6-23.2C508,466.4,504.6,458.1,498.4,451.9z M16.4,16.4h98.5v32.8H16.4V16.4z M148.2,312H16.4V115h279.1V98.6H16.4
			V65.7h114.9h213.4v96.5c-20.3-12-43.5-18.6-67.8-18.6c-35.6,0-69.1,13.9-94.3,39.1c-25.2,25.2-39.1,58.7-39.1,94.4
			C143.5,289.1,145.2,300.8,148.2,312z M359.7,359.7c-22,22.2-51.4,34.4-82.7,34.4s-60.6-12.2-82.7-34.3
			C172.2,337.7,160,308.3,160,277s12.2-60.6,34.3-82.7c22.1-22.1,51.5-34.3,82.7-34.3s60.6,12.2,82.7,34.3
			c22.1,22.1,34.3,51.5,34.3,82.7C394,308.3,381.8,337.6,359.7,359.7z M486.8,486.8c-6.2,6.2-17,6.2-23.2,0l-71.9-71.9
			c-6.4-6.4-6.4-16.8,0-23.2c3.2-3.2,7.4-4.8,11.6-4.8s8.4,1.6,11.6,4.8l71.9,71.9c3.1,3.1,4.8,7.2,4.8,11.6
			C491.6,479.5,489.9,483.7,486.8,486.8z"/>
	</g>
</g>
<g>
	<g>
		<rect x="407.796" y="407.774" transform="matrix(0.7072 -0.707 0.707 0.7072 -172.2955 415.9071)" width="16.4" height="16.4"/>
	</g>
</g>
<g>
	<g>
		<rect x="430.985" y="431.01" transform="matrix(0.7071 -0.7071 0.7071 0.7071 -181.9341 439.1907)" width="16.4" height="16.4"/>
	</g>
</g>
<g>
	<g>
		
			<rect x="454.198" y="454.198" transform="matrix(0.7071 -0.7071 0.7071 0.7071 -191.5323 462.3983)" width="16.405" height="16.405"/>
	</g>
</g>
<g>
</g>
<g>
</g>
<g>
</g>
<g>
</g>
<g>
</g>
<g>
</g>
<g>
</g>
<g>
</g>
<g>
</g>
<g>
</g>
<g>
</g>
<g>
</g>
<g>
</g>
<g>
</g>
<g>
</g>
</svg>
