<svg width="16" height="15" viewBox="0 0 16 15" fill="none" xmlns="http://www.w3.org/2000/svg">
<path d="M15.0264 4.49903C15.0262 4.36517 14.9903 4.23379 14.9222 4.11852C14.8542 4.00325 14.7565 3.9083 14.6394 3.84351L7.87272 0.0933821C7.76153 0.0321246 7.63665 0 7.50971 0C7.38276 0 7.25789 0.0321246 7.1467 0.0933821L0.413058 3.81351C0.296081 3.87828 0.198548 3.97315 0.130559 4.08829C0.0625698 4.20343 0.0265978 4.33465 0.0263683 4.46837C0.0261388 4.60208 0.0616601 4.73343 0.129253 4.8488C0.196847 4.96417 0.294054 5.05938 0.410808 5.12455L7.17745 8.90468C7.28885 8.96727 7.41446 9.00021 7.54224 9.00035C7.67001 9.00048 7.79569 8.9678 7.90722 8.90543L14.6409 5.1553C14.7578 5.09026 14.8553 4.9951 14.923 4.8797C14.9908 4.7643 15.0265 4.63287 15.0264 4.49903ZM7.54346 7.39038L2.3211 4.47353L7.50896 1.60693L12.7321 4.50128L7.54346 7.39038Z" fill="white"/>
<path d="M13.9122 9.84473L7.52578 13.3923L1.1394 9.84473L0.411133 11.1558L7.16128 14.9059C7.27267 14.9678 7.39799 15.0002 7.52541 15.0002C7.65283 15.0002 7.77815 14.9678 7.88954 14.9059L14.6397 11.1558L13.9122 9.84473Z" fill="white"/>
<path d="M13.9122 6.84473L7.52578 10.3923L1.1394 6.84473L0.411133 8.15577L7.16128 11.9059C7.27267 11.9678 7.39799 12.0002 7.52541 12.0002C7.65283 12.0002 7.77815 11.9678 7.88954 11.9059L14.6397 8.15577L13.9122 6.84473Z" fill="white"/>
</svg>
