<?xml version="1.0" ?><!DOCTYPE svg  PUBLIC '-//W3C//DTD SVG 1.1//EN'  'http://www.w3.org/Graphics/SVG/1.1/DTD/svg11.dtd'><svg enable-background="new 0 0 30 30" height="30px" id="Capa_1" version="1.1" viewBox="0 0 30 30" width="30px" xml:space="preserve" xmlns="http://www.w3.org/2000/svg" xmlns:xlink="http://www.w3.org/1999/xlink"><path d="M24.7,27.2c0.5,0,0.8-0.4,0.8-0.8s-0.4-0.8-0.8-0.8c-0.4,0-0.8,0.4-0.8,0.8S24.3,27.2,24.7,27.2z M28.1,0.1  H1.9c-1,0-1.8,0.8-1.8,1.8v26.1c0,1,0.8,1.8,1.8,1.8h26.1c1,0,1.8-0.8,1.8-1.8V1.9C29.9,0.9,29.1,0.1,28.1,0.1z M28.4,28.1  c0,0.2-0.1,0.3-0.3,0.3H1.9c-0.2,0-0.3-0.1-0.3-0.3v-3.7h26.8V28.1z M28.4,22.8H1.6V6.7h26.8V22.8z M28.4,5.2H1.6V1.9  c0-0.2,0.1-0.3,0.3-0.3h26.1c0.2,0,0.3,0.1,0.3,0.3V5.2z M10,27.2c0.4,0,0.8-0.4,0.8-0.8s-0.4-0.8-0.8-0.8s-0.8,0.4-0.8,0.8  S9.6,27.2,10,27.2z M19.8,2.6c-0.5,0-0.8,0.4-0.8,0.8s0.4,0.8,0.8,0.8c0.4,0,0.8-0.4,0.8-0.8S20.3,2.6,19.8,2.6z M19.8,27.2  c0.4,0,0.8-0.4,0.8-0.8s-0.4-0.8-0.8-0.8c-0.5,0-0.8,0.4-0.8,0.8S19.4,27.2,19.8,27.2z M14.9,27.2c0.5,0,0.8-0.4,0.8-0.8  s-0.4-0.8-0.8-0.8c-0.4,0-0.8,0.4-0.8,0.8S14.5,27.2,14.9,27.2z M5.1,27.2c0.5,0,0.8-0.4,0.8-0.8s-0.4-0.8-0.8-0.8  c-0.4,0-0.8,0.4-0.8,0.8S4.7,27.2,5.1,27.2z M14.9,2.6c-0.4,0-0.8,0.4-0.8,0.8s0.4,0.8,0.8,0.8c0.5,0,0.8-0.4,0.8-0.8  S15.4,2.6,14.9,2.6z M10,2.6c-0.4,0-0.8,0.4-0.8,0.8S9.6,4.2,10,4.2s0.8-0.4,0.8-0.8S10.5,2.6,10,2.6z M12,20.3  c0.1,0.1,0.2,0.1,0.3,0.1c0.2,0,0.3-0.1,0.5-0.2l6.4-5.1c0.2-0.1,0.3-0.4,0.3-0.6s-0.1-0.4-0.3-0.6l-6.4-5.1  c-0.2-0.2-0.5-0.2-0.8-0.1c-0.3,0.1-0.4,0.4-0.4,0.7v10.2C11.6,19.9,11.7,20.2,12,20.3z M13.1,11l4.5,3.5l-4.5,3.5V11z M24.7,2.6  c-0.4,0-0.8,0.4-0.8,0.8s0.4,0.8,0.8,0.8c0.5,0,0.8-0.4,0.8-0.8S25.2,2.6,24.7,2.6z M5.1,2.6c-0.4,0-0.8,0.4-0.8,0.8  s0.4,0.8,0.8,0.8c0.5,0,0.8-0.4,0.8-0.8S5.6,2.6,5.1,2.6z" fill="#262324"/></svg>