<svg width="31" height="31" viewBox="0 0 31 31" fill="none" xmlns="http://www.w3.org/2000/svg">
<rect width="31" height="31" fill="white"/>
<path d="M0 31H31V0H0V31Z" fill="#3C4146" fill-opacity="0.85"/>
<path fill-rule="evenodd" clip-rule="evenodd" d="M5 12.25C5 11.587 5.26339 10.9511 5.73223 10.4822C6.20107 10.0134 6.83696 9.75 7.5 9.75H16.875C17.4814 9.74993 18.0671 9.97024 18.5231 10.3699C18.9791 10.7696 19.2743 11.3214 19.3537 11.9225L23.2413 10.195C23.4315 10.1102 23.64 10.0743 23.8477 10.0906C24.0554 10.1069 24.2557 10.1748 24.4304 10.2882C24.6052 10.4016 24.7488 10.5569 24.8483 10.7399C24.9478 10.9229 24.9999 11.1279 25 11.3363V20.6637C24.9998 20.8719 24.9477 21.0767 24.8483 21.2596C24.7488 21.4425 24.6053 21.5977 24.4308 21.711C24.2562 21.8244 24.0561 21.8924 23.8486 21.9088C23.641 21.9252 23.4327 21.8895 23.2425 21.805L19.3537 20.0775C19.2743 20.6786 18.9791 21.2304 18.5231 21.6301C18.0671 22.0298 17.4814 22.2501 16.875 22.25H7.5C6.83696 22.25 6.20107 21.9866 5.73223 21.5178C5.26339 21.0489 5 20.413 5 19.75V12.25ZM19.375 18.7188L23.75 20.6637V11.3363L19.375 13.2812V18.7188ZM7.5 11C7.16848 11 6.85054 11.1317 6.61612 11.3661C6.3817 11.6005 6.25 11.9185 6.25 12.25V19.75C6.25 20.0815 6.3817 20.3995 6.61612 20.6339C6.85054 20.8683 7.16848 21 7.5 21H16.875C17.2065 21 17.5245 20.8683 17.7589 20.6339C17.9933 20.3995 18.125 20.0815 18.125 19.75V12.25C18.125 11.9185 17.9933 11.6005 17.7589 11.3661C17.5245 11.1317 17.2065 11 16.875 11H7.5Z" fill="white"/>
</svg>
