<svg width="26" height="26" viewBox="0 0 26 26" fill="none" xmlns="http://www.w3.org/2000/svg">
<path d="M21.8853 20.1012C20.7315 18.2422 18.1916 16.25 12.9998 16.25C7.80788 16.25 5.26963 18.2406 4.11426 20.1012C5.17877 21.4358 6.5305 22.5131 8.06888 23.253C9.60726 23.9929 11.2927 24.3764 12.9998 24.375C14.7068 24.3764 16.3923 23.9929 17.9306 23.253C19.469 22.5131 20.8208 21.4358 21.8853 20.1012Z" fill="white"/>
<path fill-rule="evenodd" clip-rule="evenodd" d="M13 14.625C14.2929 14.625 15.5329 14.1114 16.4471 13.1971C17.3614 12.2829 17.875 11.0429 17.875 9.75C17.875 8.45707 17.3614 7.21709 16.4471 6.30285C15.5329 5.38861 14.2929 4.875 13 4.875C11.7071 4.875 10.4671 5.38861 9.55285 6.30285C8.63861 7.21709 8.125 8.45707 8.125 9.75C8.125 11.0429 8.63861 12.2829 9.55285 13.1971C10.4671 14.1114 11.7071 14.625 13 14.625Z" fill="white"/>
<path fill-rule="evenodd" clip-rule="evenodd" d="M13 1.625C9.98316 1.625 7.08989 2.82343 4.95666 4.95666C2.82343 7.08989 1.625 9.98316 1.625 13C1.625 16.0168 2.82343 18.9101 4.95666 21.0433C7.08989 23.1766 9.98316 24.375 13 24.375C16.0168 24.375 18.9101 23.1766 21.0433 21.0433C23.1766 18.9101 24.375 16.0168 24.375 13C24.375 9.98316 23.1766 7.08989 21.0433 4.95666C18.9101 2.82343 16.0168 1.625 13 1.625ZM0 13C0 9.55219 1.36964 6.24558 3.80761 3.80761C6.24558 1.36964 9.55219 0 13 0C16.4478 0 19.7544 1.36964 22.1924 3.80761C24.6304 6.24558 26 9.55219 26 13C26 16.4478 24.6304 19.7544 22.1924 22.1924C19.7544 24.6304 16.4478 26 13 26C9.55219 26 6.24558 24.6304 3.80761 22.1924C1.36964 19.7544 0 16.4478 0 13Z" fill="white"/>
</svg>
