<svg width="26" height="26" viewBox="0 0 26 26" fill="none" xmlns="http://www.w3.org/2000/svg">
<path d="M15.5997 6.5H6.06641V14.7333H10.3997V19.5H19.9331V11.2667H15.5997V6.5ZM7.79974 13V8.23333H13.8664V13H7.79974ZM18.1997 13V17.7667H12.1331V14.7333H15.5997V13H18.1997Z" fill="white"/>
<path d="M20.8 1.73333H5.2V0H0V5.2H1.73333V20.8H0V26H5.2V24.2667H20.8V26H26V20.8H24.2667V5.2H26V0H20.8V1.73333ZM1.73333 1.73333H3.46667V3.46667H1.73333V1.73333ZM3.46667 24.2667H1.73333V22.5333H3.46667V24.2667ZM24.2667 24.2667H22.5333V22.5333H24.2667V24.2667ZM22.5333 1.73333H24.2667V3.46667H22.5333V1.73333ZM22.5333 20.8H20.8V22.5333H5.2V20.8H3.46667V5.2H5.2V3.46667H20.8V5.2H22.5333V20.8Z" fill="white"/>
</svg>
