<svg width="35" height="35" viewBox="0 0 35 35" fill="none" xmlns="http://www.w3.org/2000/svg">
<path d="M6.125 3.5C4.6725 3.5 3.5 4.6725 3.5 6.1215V28.8383C3.5 30.2873 4.67425 31.4597 6.125 31.4597H7.875C9.32225 31.4597 10.4983 30.2873 10.4983 28.8383V6.1215C10.4983 4.6725 9.32225 3.5 7.87325 3.5H6.12325H6.125ZM14.8715 3.5C13.4225 3.5 12.2465 4.6725 12.2465 6.1215V28.8383C12.2465 30.2873 13.4225 31.4597 14.8715 31.4597H16.6215C18.0705 31.4597 19.2447 30.2873 19.2447 28.8383V6.1215C19.2447 4.67425 18.0705 3.5 16.6197 3.5H14.8697H14.8715ZM27.5065 10.7748C27.4265 10.4283 27.2771 10.1018 27.0671 9.81484C26.8571 9.52793 26.5911 9.28666 26.285 9.10567C25.979 8.92468 25.6394 8.80774 25.2869 8.76194C24.9343 8.71614 24.5761 8.74245 24.234 8.83925L22.9302 9.20675C22.2933 9.38683 21.7481 9.8012 21.404 10.3667C21.0599 10.9321 20.9425 11.6068 21.0753 12.2552L24.5805 29.4035C24.6521 29.7511 24.7935 30.0805 24.996 30.3719C25.1985 30.6633 25.458 30.9106 25.7588 31.0989C26.0597 31.2872 26.3955 31.4125 26.7461 31.4673C27.0967 31.5221 27.4548 31.5052 27.7988 31.4177L29.5225 30.9802C30.905 30.6302 31.752 29.2408 31.4335 27.853L27.5065 10.773V10.7748Z" fill="white"/>
</svg>
