<svg width="26" height="26" viewBox="0 0 26 26" fill="none" xmlns="http://www.w3.org/2000/svg">
<path fill-rule="evenodd" clip-rule="evenodd" d="M15.2831 1.70625C14.612 -0.56875 11.388 -0.56875 10.7169 1.70625L10.5544 2.25875C10.4541 2.59934 10.2789 2.91317 10.0415 3.17722C9.80416 3.44127 9.51072 3.64885 9.1827 3.78473C8.85469 3.92061 8.50042 3.98135 8.14587 3.96249C7.79133 3.94363 7.4455 3.84566 7.13375 3.67575L6.63 3.3995C4.54513 2.26525 2.26525 4.54513 3.40112 6.62838L3.67575 7.13375C4.4005 8.46625 3.71312 10.1254 2.25875 10.5544L1.70625 10.7169C-0.56875 11.388 -0.56875 14.612 1.70625 15.2831L2.25875 15.4456C2.59934 15.5459 2.91317 15.7211 3.17722 15.9585C3.44127 16.1958 3.64885 16.4893 3.78473 16.8173C3.92061 17.1453 3.98135 17.4996 3.96249 17.8541C3.94363 18.2087 3.84566 18.5545 3.67575 18.8662L3.3995 19.37C2.26525 21.4549 4.54513 23.7347 6.62838 22.5989L7.13375 22.3242C7.4455 22.1543 7.79133 22.0564 8.14587 22.0375C8.50042 22.0187 8.85469 22.0794 9.1827 22.2153C9.51072 22.3512 9.80416 22.5587 10.0415 22.8228C10.2789 23.0868 10.4541 23.4007 10.5544 23.7412L10.7169 24.2937C11.388 26.5688 14.612 26.5688 15.2831 24.2937L15.4456 23.7412C15.5459 23.4007 15.7211 23.0868 15.9585 22.8228C16.1958 22.5587 16.4893 22.3512 16.8173 22.2153C17.1453 22.0794 17.4996 22.0187 17.8541 22.0375C18.2087 22.0564 18.5545 22.1543 18.8662 22.3242L19.37 22.6005C21.4549 23.7348 23.7347 21.4549 22.5989 19.3716L22.3242 18.8662C22.1543 18.5545 22.0564 18.2087 22.0375 17.8541C22.0187 17.4996 22.0794 17.1453 22.2153 16.8173C22.3512 16.4893 22.5587 16.1958 22.8228 15.9585C23.0868 15.7211 23.4007 15.5459 23.7412 15.4456L24.2937 15.2831C26.5688 14.612 26.5688 11.388 24.2937 10.7169L23.7412 10.5544C23.4007 10.4541 23.0868 10.2789 22.8228 10.0415C22.5587 9.80416 22.3512 9.51072 22.2153 9.1827C22.0794 8.85469 22.0187 8.50042 22.0375 8.14587C22.0564 7.79133 22.1543 7.4455 22.3242 7.13375L22.6005 6.63C23.7348 4.54513 21.4549 2.26525 19.3716 3.40112L18.8662 3.67575C18.5545 3.84566 18.2087 3.94363 17.8541 3.96249C17.4996 3.98135 17.1453 3.92061 16.8173 3.78473C16.4893 3.64885 16.1958 3.44127 15.9585 3.17722C15.7211 2.91317 15.5459 2.59934 15.4456 2.25875L15.2831 1.70625ZM13 17.7612C14.2628 17.7612 15.4738 17.2596 16.3667 16.3667C17.2596 15.4738 17.7612 14.2628 17.7612 13C17.7612 11.7372 17.2596 10.5262 16.3667 9.63329C15.4738 8.74038 14.2628 8.23875 13 8.23875C11.7377 8.23875 10.527 8.74021 9.63444 9.63281C8.74183 10.5254 8.24038 11.736 8.24038 12.9984C8.24038 14.2607 8.74183 15.4713 9.63444 16.3639C10.527 17.2565 11.7377 17.758 13 17.758V17.7612Z" fill="white"/>
</svg>
