<svg width="26" height="26" viewBox="0 0 26 26" fill="none" xmlns="http://www.w3.org/2000/svg">
<path d="M11.2739 2.47038L11.2738 2.47057C11.142 2.91854 10.9115 3.3313 10.5993 3.6786C10.2871 4.02589 9.90117 4.29891 9.46974 4.47763C9.03832 4.65635 8.57236 4.73624 8.10604 4.71143C7.63972 4.68663 7.18487 4.55777 6.77483 4.33429L6.77312 4.33336L6.27158 4.05831C6.27124 4.05813 6.27089 4.05794 6.27055 4.05775C4.84135 3.28137 3.28266 4.84438 4.05961 6.26934L4.06011 6.27028L4.3346 6.7754C4.33465 6.77548 4.33469 6.77557 4.33474 6.77565C5.28732 8.5274 4.38351 10.7096 2.47094 11.2737L2.47038 11.2739L1.91846 11.4362L11.2739 2.47038ZM11.2739 2.47038L11.4362 1.91846M11.2739 2.47038L11.4362 1.91846M2.47038 14.7261L2.47057 14.7262C2.91854 14.858 3.3313 15.0885 3.6786 15.4007C4.02589 15.7129 4.29891 16.0988 4.47763 16.5303C4.65635 16.9617 4.73624 17.4276 4.71143 17.894C4.68663 18.3603 4.55777 18.8151 4.33429 19.2252L4.33336 19.2269L4.05831 19.7284C4.05812 19.7288 4.05792 19.7291 4.05773 19.7295C3.2814 21.1587 4.8444 22.7173 6.26934 21.9404L6.27027 21.9399L6.77483 21.6657C7.18487 21.4422 7.63972 21.3134 8.10604 21.2886C8.57236 21.2638 9.03832 21.3437 9.46974 21.5224C9.90116 21.7011 10.2871 21.9741 10.5993 22.3214C10.9115 22.6687 11.142 23.0815 11.2738 23.5294L11.2739 23.5296L11.4362 24.0815L2.47038 14.7261ZM2.47038 14.7261L1.91846 14.5638M2.47038 14.7261L1.91846 14.5638M14.7261 23.5296L14.7262 23.5294C14.858 23.0815 15.0885 22.6687 15.4007 22.3214C15.7129 21.9741 16.0988 21.7011 16.5303 21.5224C16.9617 21.3437 17.4276 21.2638 17.894 21.2886C18.3603 21.3134 18.8151 21.4422 19.2252 21.6657L19.2269 21.6666L19.7284 21.9417C19.7288 21.9419 19.7292 21.9421 19.7296 21.9423C21.1587 22.7185 22.7173 21.1556 21.9404 19.7307L21.9399 19.7297L21.6657 19.2252L14.7261 23.5296ZM14.7261 23.5296L14.5638 24.0815M14.7261 23.5296L14.5638 24.0815M23.5294 14.7262L23.5296 14.7261L24.0815 14.5638L23.5294 14.7262ZM23.5294 14.7262C23.0815 14.858 22.6687 15.0885 22.3214 15.4007C21.9741 15.7129 21.7011 16.0988 21.5224 16.5303C21.3437 16.9617 21.2638 17.4276 21.2886 17.894C21.3134 18.36 21.4421 18.8145 21.6653 19.2243L23.5294 14.7262ZM23.5296 11.2739L23.5294 11.2738C23.0815 11.142 22.6687 10.9115 22.3214 10.5993C21.9741 10.2871 21.7011 9.90116 21.5224 9.46974C21.3437 9.03832 21.2638 8.57236 21.2886 8.10604C21.3134 7.63972 21.4422 7.18487 21.6657 6.77483L21.6666 6.77312L21.9417 6.27158C21.9418 6.27128 21.942 6.27098 21.9422 6.27068C22.7187 4.84145 21.1557 3.28263 19.7307 4.05961L19.7297 4.06011L19.2252 4.33429C19.2251 4.33433 19.225 4.33437 19.225 4.33441C18.815 4.55781 18.3602 4.68663 17.894 4.71143C17.4276 4.73624 16.9617 4.65635 16.5303 4.47763C16.0988 4.29891 15.7129 4.02589 15.4007 3.6786C15.0885 3.3313 14.858 2.91854 14.7262 2.47057L14.7261 2.47038L14.5638 1.91846L23.5296 11.2739ZM23.5296 11.2739L24.0815 11.4362M23.5296 11.2739L24.0815 11.4362M11.4362 1.91846L11.4364 1.91788C11.8963 0.360708 14.1037 0.360708 14.5636 1.91788L11.4362 1.91846ZM1.91846 14.5638L1.91788 14.5636C0.360708 14.1037 0.360708 11.8963 1.91788 11.4364L1.91846 14.5638ZM14.5638 24.0815L14.5636 24.0821C14.1037 25.6393 11.8963 25.6393 11.4364 24.0821L14.5638 24.0815ZM24.0815 11.4362L24.0821 11.4364C25.6393 11.8963 25.6393 14.1037 24.0821 14.5636L24.0815 11.4362ZM13 18.5073C14.4293 18.4911 15.8704 17.9237 16.897 16.897C17.9306 15.8635 18.5113 14.4617 18.5113 13C18.5113 11.5383 17.9306 10.1365 16.897 9.10296C15.8635 8.0694 14.4617 7.48875 13 7.48875C11.5388 7.48875 10.1374 8.06923 9.10411 9.10248C8.07085 10.1357 7.49038 11.5371 7.49038 12.9984C7.49038 14.4596 8.07085 15.861 9.10411 16.8943C10.129 17.9192 11.3917 18.508 13 18.508V18.5073Z" fill="#6042CB" stroke="white" stroke-width="1.5"/>
</svg>
