<svg width="26" height="26" viewBox="0 0 26 26" fill="none" xmlns="http://www.w3.org/2000/svg">
<path d="M5.52344 12.9989C5.52344 11.0158 6.31115 9.11386 7.71329 7.71157C9.11543 6.30928 11.0171 5.52148 13.0001 5.52148C14.983 5.52148 16.8847 6.30928 18.2868 7.71157C19.689 9.11386 20.4767 11.0158 20.4767 12.9989C20.4767 14.982 19.689 16.884 18.2868 18.2862C16.8847 19.6885 14.983 20.4763 13.0001 20.4763C11.0171 20.4763 9.11543 19.6885 7.71329 18.2862C6.31115 16.884 5.52344 14.982 5.52344 12.9989Z" fill="white"/>
<path fill-rule="evenodd" clip-rule="evenodd" d="M13.3356 0.170659C13.2971 0.117787 13.2466 0.0747709 13.1883 0.0451144C13.1299 0.0154579 13.0654 0 13 0C12.9346 0 12.8701 0.0154579 12.8117 0.0451144C12.7534 0.0747709 12.7029 0.117787 12.6644 0.170659L11.1524 2.25603C11.0911 2.3413 10.9998 2.4002 10.8969 2.42085C10.7939 2.44151 10.687 2.42239 10.5975 2.36736L8.40105 1.0181C8.34512 0.983751 8.28185 0.963145 8.21643 0.95797C8.151 0.952795 8.08528 0.963198 8.02465 0.988328C7.96402 1.01346 7.91021 1.0526 7.86762 1.10254C7.82504 1.15249 7.79489 1.21181 7.77966 1.27566L7.18153 3.78142C7.15764 3.88344 7.09608 3.97267 7.0092 4.03122C6.92231 4.08976 6.81651 4.11331 6.71299 4.09714L4.16762 3.69003C4.10289 3.67979 4.03665 3.68501 3.97432 3.70527C3.91199 3.72553 3.85534 3.76025 3.80899 3.8066C3.76265 3.85295 3.72793 3.90961 3.70768 3.97194C3.68742 4.03428 3.6822 4.10052 3.69244 4.16527L4.09784 6.71091C4.11407 6.81421 4.09076 6.91983 4.03255 7.00668C3.97434 7.09354 3.88552 7.15525 3.78382 7.1795L1.27666 7.77769C1.21297 7.79314 1.15383 7.82344 1.10409 7.86611C1.05434 7.90879 1.0154 7.96263 0.990451 8.02324C0.965497 8.08385 0.955237 8.1495 0.960511 8.21484C0.965785 8.28017 0.986443 8.34333 1.0208 8.39915L2.36991 10.5959C2.42445 10.6852 2.44328 10.7917 2.42264 10.8943C2.402 10.9969 2.34342 11.0879 2.25859 11.1492L0.171784 12.6613C0.118594 12.6998 0.0752915 12.7504 0.0454304 12.8089C0.0155692 12.8674 0 12.9321 0 12.9978C0 13.0634 0.0155692 13.1282 0.0454304 13.1867C0.0752915 13.2452 0.118594 13.2957 0.171784 13.3342L2.25859 14.8464C2.34386 14.9077 2.40274 14.999 2.4234 15.102C2.44405 15.2049 2.42494 15.3119 2.36991 15.4013L1.0208 17.598C0.986443 17.6539 0.965785 17.717 0.960511 17.7824C0.955237 17.8477 0.965497 17.9133 0.990451 17.974C1.0154 18.0346 1.05434 18.0884 1.10409 18.1311C1.15383 18.1738 1.21297 18.2041 1.27666 18.2195L3.78548 18.8177C3.88688 18.8423 3.9753 18.9042 4.03318 18.991C4.09105 19.0778 4.11413 19.1832 4.09784 19.2863L3.69244 21.8319C3.6822 21.8967 3.68742 21.9629 3.70768 22.0253C3.72793 22.0876 3.76265 22.1442 3.80899 22.1906C3.85534 22.2369 3.91199 22.2717 3.97432 22.2919C4.03665 22.3122 4.10289 22.3174 4.16762 22.3072L6.71299 21.9017C6.81628 21.8855 6.92188 21.9088 7.00873 21.967C7.09558 22.0252 7.15729 22.1141 7.18153 22.2158L7.77966 24.7215C7.79489 24.7854 7.82504 24.8447 7.86762 24.8947C7.91021 24.9446 7.96402 24.9837 8.02465 25.0089C8.08528 25.034 8.151 25.0444 8.21643 25.0392C8.28185 25.034 8.34512 25.0134 8.40105 24.9791L10.5975 23.6298C10.6868 23.5753 10.7934 23.5565 10.896 23.5771C10.9985 23.5977 11.0895 23.6563 11.1508 23.7412L12.6627 25.8282C12.7012 25.8814 12.7518 25.9247 12.8103 25.9546C12.8688 25.9844 12.9335 26 12.9992 26C13.0648 26 13.1296 25.9844 13.1881 25.9546C13.2465 25.9247 13.2971 25.8814 13.3356 25.8282L14.8476 23.7412C14.9089 23.6559 15.0002 23.597 15.1031 23.5763C15.2061 23.5557 15.313 23.5748 15.4025 23.6298L17.599 24.9791C17.6549 25.0134 17.7181 25.034 17.7836 25.0392C17.849 25.0444 17.9147 25.034 17.9753 25.0089C18.036 24.9837 18.0898 24.9446 18.1324 24.8947C18.175 24.8447 18.2051 24.7854 18.2203 24.7215L18.8185 22.2158C18.8424 22.1138 18.9039 22.0245 18.9908 21.966C19.0777 21.9074 19.1835 21.8839 19.287 21.9001L21.8324 22.3072C21.8971 22.3174 21.9634 22.3122 22.0257 22.2919C22.088 22.2717 22.1447 22.2369 22.191 22.1906C22.2373 22.1442 22.2721 22.0876 22.2923 22.0253C22.3126 21.9629 22.3178 21.8967 22.3076 21.8319L21.9022 19.2863C21.8859 19.183 21.9092 19.0774 21.9675 18.9905C22.0257 18.9037 22.1145 18.8419 22.2162 18.8177L24.7217 18.2195C24.7855 18.2043 24.8448 18.1741 24.8948 18.1315C24.9447 18.0889 24.9838 18.0351 25.009 17.9745C25.0341 17.9138 25.0445 17.8481 25.0393 17.7827C25.0342 17.7173 25.0135 17.654 24.9792 17.598L23.6301 15.4013C23.5756 15.312 23.5567 15.2055 23.5774 15.1029C23.598 15.0003 23.6566 14.9093 23.7414 14.848L25.8282 13.3359C25.8814 13.2974 25.9247 13.2468 25.9546 13.1883C25.9844 13.1298 26 13.0651 26 12.9994C26 12.9338 25.9844 12.869 25.9546 12.8105C25.9247 12.752 25.8814 12.7015 25.8282 12.6629L23.7414 11.1508C23.6561 11.0895 23.5973 10.9982 23.5766 10.8952C23.556 10.7923 23.5751 10.6853 23.6301 10.5959L24.9792 8.39915C25.0135 8.34322 25.0342 8.27994 25.0393 8.21451C25.0445 8.14908 25.0341 8.08335 25.009 8.02271C24.9838 7.96208 24.9447 7.90826 24.8948 7.86567C24.8448 7.82308 24.7855 7.79293 24.7217 7.77769L22.2162 7.1795C22.1142 7.15561 22.025 7.09404 21.9664 7.00715C21.9079 6.92025 21.8843 6.81444 21.9005 6.71091L22.3076 4.16527C22.3178 4.10052 22.3126 4.03428 22.2923 3.97194C22.2721 3.90961 22.2373 3.85295 22.191 3.8066C22.1447 3.76025 22.088 3.72553 22.0257 3.70527C21.9634 3.68501 21.8971 3.67979 21.8324 3.69003L19.287 4.09548C19.1837 4.11171 19.0781 4.08839 18.9913 4.03018C18.9044 3.97196 18.8427 3.88314 18.8185 3.78142L18.2203 1.27566C18.2051 1.21181 18.175 1.15249 18.1324 1.10254C18.0898 1.0526 18.036 1.01346 17.9753 0.988328C17.9147 0.963198 17.849 0.952795 17.7836 0.95797C17.7181 0.963145 17.6549 0.983751 17.599 1.0181L15.4025 2.36736C15.3132 2.4219 15.2066 2.44074 15.104 2.4201C15.0015 2.39946 14.9105 2.34086 14.8492 2.25603L13.3373 0.170659H13.3356ZM13 3.85952C10.5764 3.85952 8.25212 4.82239 6.5384 6.53629C4.82467 8.2502 3.86191 10.5748 3.86191 12.9986C3.86191 15.4224 4.82467 17.747 6.5384 19.4609C8.25212 21.1748 10.5764 22.1377 13 22.1377C15.4236 22.1377 17.7479 21.1748 19.4616 19.4609C21.1753 17.747 22.1381 15.4224 22.1381 12.9986C22.1381 10.5748 21.1753 8.2502 19.4616 6.53629C17.7479 4.82239 15.4236 3.85952 13 3.85952Z" fill="white"/>
</svg>
