<svg width="26" height="26" viewBox="0 0 26 26" fill="none" xmlns="http://www.w3.org/2000/svg">
<path d="M25.1597 9.15534L17.3654 7.96913L13.8811 0.57222C13.7859 0.369697 13.6294 0.20575 13.436 0.106095C12.9509 -0.144647 12.3615 0.064305 12.119 0.57222L8.63477 7.96913L0.840471 9.15534C0.625583 9.18749 0.429114 9.29357 0.278692 9.4543C0.0968411 9.65003 -0.00336732 9.91336 8.64032e-05 10.1864C0.00354013 10.4595 0.110373 10.7199 0.297111 10.9105L5.93639 16.668L4.60408 24.7978C4.57284 24.987 4.59282 25.1815 4.66177 25.3593C4.73072 25.5371 4.84586 25.6912 4.99416 25.8039C5.14245 25.9167 5.31796 25.9837 5.50078 25.9974C5.68359 26.011 5.86641 25.9708 6.02848 25.8812L13.0001 22.0429L19.9716 25.8812C20.162 25.9873 20.383 26.0226 20.5948 25.984C21.129 25.8876 21.4881 25.3572 21.396 24.7978L20.0637 16.668L25.703 10.9105C25.8565 10.753 25.9578 10.5473 25.9885 10.3223C26.0714 9.7597 25.6969 9.23892 25.1597 9.15534Z" fill="white"/>
</svg>
