<svg width="26" height="26" viewBox="0 0 26 26" fill="none" xmlns="http://www.w3.org/2000/svg">
<path d="M13.8811 0.57222C13.7859 0.369697 13.6294 0.20575 13.436 0.106095C12.9509 -0.144647 12.3615 0.0643049 12.119 0.57222L8.63477 7.96913L13.8811 0.57222ZM12.7964 0.894084C12.8668 0.748303 13.0036 0.726846 13.0916 0.772336L13.0924 0.772792C13.1343 0.794382 13.1753 0.833769 13.2023 0.891182L13.2026 0.89182L16.6869 8.28873L16.8572 8.65044L17.2525 8.7106L25.0444 9.89642C25.0446 9.89647 25.0449 9.89651 25.0452 9.89655C25.1536 9.91394 25.2725 10.0363 25.2465 10.2129L25.2465 10.2129L25.2454 10.2209C25.2363 10.2874 25.2069 10.3449 25.1662 10.3868C25.1661 10.3869 25.166 10.387 25.1659 10.3871L19.5279 16.1432L19.2622 16.4145L19.3236 16.7893L20.6559 24.9191L20.656 24.9197C20.6862 25.1029 20.5651 25.2273 20.4616 25.246L20.4604 25.2462C20.4177 25.254 20.3735 25.2465 20.3368 25.2261L20.3334 25.2242L13.3618 21.3859L13.0001 21.1867L12.6383 21.3859L5.66676 25.2242L5.66559 25.2248C5.62982 25.2446 5.59235 25.2521 5.55662 25.2495C5.5208 25.2468 5.48312 25.2336 5.44818 25.207C5.41289 25.1801 5.38116 25.14 5.36105 25.0882C5.34087 25.0361 5.33457 24.9775 5.34405 24.9201L5.34421 24.9191L6.67651 16.7893L6.73793 16.4145L6.47219 16.1432L0.832911 10.3857L0.832864 10.3857C0.784631 10.3365 0.751103 10.2621 0.750026 10.1769C0.748956 10.0923 0.780221 10.0169 0.827249 9.96576C0.867085 9.92362 0.911468 9.90306 0.951434 9.89709L0.953314 9.8968L8.74761 8.7106L9.14288 8.65044L9.31326 8.28873L12.7958 0.895378C12.796 0.894946 12.7962 0.894515 12.7964 0.894084Z" fill="#6042CB" stroke="#FBFBFB" stroke-width="1.5"/>
</svg>
