<svg width="26" height="26" viewBox="0 0 26 26" fill="none" xmlns="http://www.w3.org/2000/svg">
<path d="M12.9999 5.2002C11.6441 5.20192 10.3443 5.74128 9.38556 6.70001C8.42683 7.65874 7.88746 8.95855 7.88574 10.3144H10.4857C10.4857 8.9273 11.6141 7.8002 12.9999 7.8002C14.3857 7.8002 15.5141 8.9273 15.5141 10.3144C15.5141 11.0918 14.8888 11.656 13.9333 12.4282C13.6212 12.6727 13.3214 12.9326 13.035 13.2069C11.7376 14.503 11.6999 15.8797 11.6999 16.0331V16.9002H14.2999L14.2986 16.0773C14.2999 16.0565 14.3415 15.5755 14.8719 15.0464C15.0669 14.8514 15.3126 14.6564 15.5674 14.451C16.5801 13.6307 18.1128 12.3918 18.1128 10.3144C18.1118 8.95857 17.5728 7.65855 16.6142 6.69971C15.6557 5.74087 14.3558 5.20157 12.9999 5.2002ZM11.6999 18.2002H14.2999V20.8002H11.6999V18.2002Z" fill="white"/>
<path d="M13 0C5.8318 0 0 5.8318 0 13C0 20.1682 5.8318 26 13 26C20.1682 26 26 20.1682 26 13C26 5.8318 20.1682 0 13 0ZM13 23.4C7.2657 23.4 2.6 18.7343 2.6 13C2.6 7.2657 7.2657 2.6 13 2.6C18.7343 2.6 23.4 7.2657 23.4 13C23.4 18.7343 18.7343 23.4 13 23.4Z" fill="white"/>
</svg>
