<svg width="26" height="26" viewBox="0 0 26 26" fill="none" xmlns="http://www.w3.org/2000/svg">
<path d="M26 7.79823C25.9997 7.56621 25.9374 7.33849 25.8195 7.13869C25.7015 6.93889 25.5322 6.7743 25.3292 6.66201L13.6003 0.161861C13.4076 0.0556819 13.1912 0 12.9711 0C12.7511 0 12.5346 0.0556819 12.3419 0.161861L0.670264 6.61001C0.467504 6.72228 0.298446 6.88672 0.180599 7.08629C0.0627512 7.28587 0.000399689 7.51331 1.9152e-06 7.74508C-0.000395858 7.97685 0.0611743 8.20452 0.178336 8.40449C0.295498 8.60447 0.463991 8.76949 0.666364 8.88246L12.3952 15.4346C12.5883 15.5431 12.806 15.6002 13.0275 15.6004C13.249 15.6006 13.4668 15.544 13.6601 15.4359L25.3318 8.93576C25.5345 8.82302 25.7034 8.65808 25.8209 8.45805C25.9384 8.25803 26.0002 8.03021 26 7.79823ZM13.0296 12.8098L3.97753 7.75403L12.9698 2.78532L22.0232 7.80213L13.0296 12.8098Z" fill="white"/>
<path d="M24.0698 17.0635L13 23.2126L1.9303 17.0635L0.667969 19.3359L12.3682 25.8361C12.5613 25.9433 12.7785 25.9996 12.9994 25.9996C13.2202 25.9996 13.4375 25.9433 13.6305 25.8361L25.3308 19.3359L24.0698 17.0635Z" fill="white"/>
<path d="M24.0698 11.8643L13 18.0134L1.9303 11.8643L0.667969 14.1367L12.3682 20.6369C12.5613 20.7441 12.7785 20.8004 12.9994 20.8004C13.2202 20.8004 13.4375 20.7441 13.6305 20.6369L25.3308 14.1367L24.0698 11.8643Z" fill="white"/>
</svg>
