<svg width="23" height="23" viewBox="0 0 23 23" fill="none" xmlns="http://www.w3.org/2000/svg">
<path fill-rule="evenodd" clip-rule="evenodd" d="M17.4265 15.7069C18.9436 13.7501 19.6586 11.2887 19.426 8.82331C19.1934 6.35791 18.0307 4.07376 16.1745 2.43553C14.3182 0.797307 11.9078 -0.0719285 9.4336 0.00466355C6.95942 0.0812556 4.60734 1.09792 2.85586 2.84783C1.10285 4.59896 0.08327 6.95289 0.00487895 9.42993C-0.0735121 11.907 0.79519 14.3207 2.43396 16.1793C4.07273 18.0378 6.35822 19.2013 8.82471 19.4326C11.2912 19.6639 13.753 18.9457 15.7085 17.4242L15.7609 17.479L20.9219 22.6433C21.0349 22.7564 21.1691 22.8461 21.3168 22.9073C21.4645 22.9685 21.6228 23 21.7827 23C21.9425 23 22.1008 22.9685 22.2485 22.9073C22.3962 22.8461 22.5304 22.7564 22.6435 22.6433C22.7565 22.5302 22.8462 22.396 22.9073 22.2482C22.9685 22.1005 23 21.9421 23 21.7822C23 21.6223 22.9685 21.4639 22.9073 21.3162C22.8462 21.1684 22.7565 21.0341 22.6435 20.9211L17.4812 15.758C17.4634 15.7404 17.4452 15.7234 17.4265 15.7069ZM14.9007 4.57008C15.5876 5.24617 16.1339 6.05163 16.5081 6.94C16.8823 7.82837 17.077 8.78207 17.0809 9.74609C17.0849 10.7101 16.8979 11.6654 16.531 12.5567C16.164 13.4481 15.6243 14.258 14.9429 14.9397C14.2615 15.6214 13.4519 16.1613 12.5609 16.5284C11.6699 16.8955 10.715 17.0825 9.75137 17.0786C8.78773 17.0746 7.83442 16.8799 6.9464 16.5055C6.05838 16.1312 5.25324 15.5847 4.57742 14.8975C3.22684 13.5242 2.47341 11.6726 2.48125 9.74609C2.48909 7.81958 3.25757 5.97422 4.61928 4.61196C5.981 3.2497 7.82563 2.48092 9.75137 2.47308C11.6771 2.46523 13.5279 3.21896 14.9007 4.57008Z" fill="white"/>
</svg>
