<svg width="26" height="26" viewBox="0 0 26 26" fill="none" xmlns="http://www.w3.org/2000/svg">
<path d="M0 4.33333V0C6.89563 0 13.5088 2.73928 18.3848 7.61522C23.2607 12.4912 26 19.1044 26 26H21.6667C21.6667 23.1547 21.1062 20.3372 20.0174 17.7085C18.9285 15.0798 17.3326 12.6913 15.3206 10.6794C13.3087 8.66742 10.9202 7.07146 8.29147 5.98261C5.66275 4.89376 2.84531 4.33333 0 4.33333ZM0 13V8.66667C4.59709 8.66667 9.00589 10.4929 12.2565 13.7435C15.5071 16.9941 17.3333 21.4029 17.3333 26H13C13 22.5522 11.6304 19.2456 9.19239 16.8076C6.75442 14.3696 3.44781 13 0 13ZM0 17.3333C2.29854 17.3333 4.50294 18.2464 6.12826 19.8717C7.75357 21.4971 8.66667 23.7015 8.66667 26H0V17.3333Z" fill="white"/>
</svg>
