<svg height="26" viewBox="0 -7 511.99937 511" width="26" fill="white" xmlns="http://www.w3.org/2000/svg"><path d="m511.941406 417.320312c-.769531-18.867187-9.457031-36.691406-23.835937-48.921874l-164.230469-144.292969 100.503906-100.503907 37.085938-14.996093c2.296875-.929688 4.164062-2.675781 5.246094-4.898438l28.605468-58.828125c1.863282-3.835937 1.09375-8.429687-1.921875-11.445312l-29.324219-29.324219c-3.0625-3.0625-7.746093-3.804687-11.605468-1.839844l-57.949219 29.484375c-2.152344 1.09375-3.832031 2.925782-4.738281 5.160156l-14.988282 37.066407-103.726562 103.726562-47.230469-41.496093c12.746094-36.957032 3.515625-77.753907-24.449219-105.722657-28.335937-28.335937-70.890624-37.5625-108.417968-23.5-3.183594 1.191407-5.542969 3.921875-6.265625 7.246094-.71875 3.320313.296875 6.785156 2.703125 9.1875l44.855468 44.855469-8.367187 31.589844-31.582031 8.359374-44.855469-44.855468c-2.402344-2.40625-5.867187-3.425782-9.1875-2.703125-3.324219.71875-6.054687 3.082031-7.246094 6.265625-14.058593 37.523437-4.835937 80.078125 23.5 108.414062 27.972657 27.972656 68.773438 37.199219 105.726563 24.449219l25.691406 29.246094c-12.207031.441406-24.277344 5.296875-33.5625 14.582031l-38.472656 38.472656c-3.894532 3.894532-3.902344 10.207032-.027344 14.113282 3.65625 3.703124 9.605469 3.996093 13.617188.558593.335937-.285156.648437-.59375.9375-.910156l38.089843-38.089844c11.6875-11.6875 30.726563-11.714843 42.445313-.0625l8.808594 8.761719-148.625 148.621094c-3.902344 3.90625-3.902344 10.238281 0 14.144531 1.953124 1.953125 4.511718 2.929687 7.070312 2.929687s5.121094-.976562 7.074219-2.929687l148.261719-148.265625 15.492187 17.632812c1.597656 3.699219 2.449219 7.722657 2.453125 11.875.011719 8.046876-3.113281 15.605469-8.800781 21.296876l-137.019531 137.015624c-10.414063 10.421876-26.144532 12.441407-37.96875 5.566407 1.300781-10.6875-2.242188-21.355469-9.976563-29.101563-7.933594-7.933594-18.953125-11.464844-29.925781-9.878906-8.867188-11.964844-7.519532-29.378906 3.78125-40.679688l34.769531-34.773437c3.90625-3.902344 3.90625-10.234375 0-14.140625-3.902344-3.90625-10.234375-3.90625-14.140625 0l-34.769531 34.769531c-9.730469 9.734375-15.214844 22.570313-15.4414065 36.148438-.2304685 13.707031 4.9140625 26.519531 14.4765625 36.082031l.75.753906c2.703125 2.703125 6.707031 3.628906 10.320313 2.386719 5.773437-1.980469 11.917968-.648437 16.035156 3.46875 4.101562 4.113281 5.4375 10.226563 3.484375 15.953125-1.3125 3.832031-.179688 8.074219 2.863281 10.746094 9.351562 8.210937 21.066406 12.261718 32.863281 12.261718 13.351563 0 26.800781-5.191406 37.023438-15.421874l137.015625-137.015626c6.558594-6.558593 11.070312-14.617187 13.21875-23.398437l124.367187 141.558594c12.234375 14.378906 30.058594 23.066406 48.925781 23.835937.917969.039063 1.832032.058594 2.75.058594 17.929688 0 35.296876-7.160156 48.019532-19.878906 13.371094-13.375 20.59375-31.878906 19.820312-50.769532zm-56.878906-393.933593 19.152344 19.152343-23.8125 48.964844-29.253906 11.832032-26.101563-26.101563 11.871094-29.351563zm-71.773438 70.375 21.316407 21.328125-95.789063 95.789062-22.699218-19.945312zm94.6875 360.183593c-9.566406 9.570313-22.296874 14.542969-35.808593 13.980469-13.523438-.550781-25.792969-6.542969-34.546875-16.859375-.039063-.042968-.074219-.085937-.113282-.128906l-143.613281-163.460938c-2.355469-4.539062-5.421875-8.738281-9.152343-12.453124l-14.121094-14.039063-69.949219-79.613281c-1.941406-2.210938-4.695313-3.402344-7.515625-3.402344-1.316406 0-2.644531.261719-3.910156.800781-31.121094 13.234375-66.679688 6.34375-90.585938-17.5625-18.894531-18.894531-27.230468-45.644531-23.097656-71.441406l36.671875 36.675781c2.519531 2.515625 6.183594 3.507813 9.632813 2.59375l42.761718-11.320312c3.476563-.921875 6.1875-3.632813 7.109375-7.105469l11.328125-42.773437c.910156-3.441407-.078125-7.113282-2.597656-9.628907l-36.675781-36.675781c25.800781-4.132812 52.550781 4.203125 71.445312 23.097656 23.902344 23.90625 30.796875 59.460938 17.558594 90.585938-1.6875 3.96875-.640625 8.578125 2.601563 11.425781l59.414062 52.199219c.03125.027344.058594.058594.085938.082031l37.761718 33.171875c.007813.007812.019532.015625.03125.023438l172.277344 151.359374c.042969.035157.085938.074219.128906.109376 10.320313 8.757812 16.308594 21.027343 16.863282 34.550781.550781 13.523437-4.414063 26.238281-13.984376 35.808593zm0 0"/><path d="m455.128906 418.039062c-1.636718-3.929687-5.691406-6.457031-9.949218-6.148437-4.140626.300781-7.75 3.234375-8.894532 7.226563-1.152344 4.007812.390625 8.457031 3.792969 10.878906 3.367187 2.394531 7.925781 2.460937 11.371094.183594 3.925781-2.59375 5.484375-7.808594 3.679687-12.140626zm0 0"/><path d="m285.285156 246.679688c-3.914062-3.894532-10.246094-3.878907-14.140625.035156-3.898437 3.914062-3.878906 10.246094.035157 14.144531l130.222656 129.554687c1.953125 1.941407 4.503906 2.914063 7.054687 2.914063 2.566407 0 5.136719-.984375 7.089844-2.949219 3.894531-3.914062 3.878906-10.246094-.035156-14.140625zm0 0"/><path d="m81.46875 325.910156c2.332031 3.464844 6.691406 5.164063 10.75 4.140625 4.007812-1.015625 7.007812-4.449219 7.5-8.550781.5-4.140625-1.785156-8.273438-5.515625-10.113281-3.816406-1.878907-8.472656-1.085938-11.484375 1.902343-3.339844 3.320313-3.859375 8.710938-1.25 12.621094zm0 0"/></svg>
