<svg width="23" height="23" viewBox="0 0 23 23" fill="none" xmlns="http://www.w3.org/2000/svg">
<g clip-path="url(#clip0)">
<path d="M12.7248 11.0248C12.9898 10.8893 13.285 10.8177 13.5912 10.8177C14.0987 10.8177 14.5758 11.0147 14.9355 11.3725L15.7098 10.5983C17.6259 11.2699 19.842 10.8399 21.3738 9.30825C22.6626 8.01941 23.1709 6.24613 22.8996 4.57461C22.8697 4.39054 22.7394 4.23871 22.562 4.18143C22.3846 4.12408 22.1898 4.17068 22.058 4.30258L20.9083 5.45223C19.9721 6.38846 18.4541 6.38846 17.5178 5.45223C16.5815 4.516 16.5815 2.99796 17.5178 2.06173L18.6675 0.912084C18.7994 0.780186 18.8464 0.585439 18.789 0.407954C18.7316 0.230391 18.5795 0.100376 18.3954 0.0704814C16.7239 -0.200846 14.9506 0.307442 13.6618 1.59629C12.1073 3.15081 11.6889 5.40994 12.4039 7.34525L10.7246 9.02453L12.7248 11.0248Z" fill="white"/>
<path d="M9.66613 14.0674L7.67433 12.0756L0.709495 19.0404C-0.196134 19.946 -0.196134 21.4143 0.709495 22.3199C1.61512 23.2256 3.08342 23.2256 3.98904 22.3199L9.99317 16.3159C9.38758 15.7071 9.27844 14.788 9.66613 14.0674Z" fill="white"/>
<path d="M14.1066 12.2079C13.9641 12.0655 13.7774 11.9943 13.5907 11.9943C13.4041 11.9943 13.2173 12.0655 13.0749 12.2079L12.6591 12.6237L5.25278 5.21737L5.59897 4.87119C5.91439 4.55585 5.87524 4.03273 5.51572 3.76799L2.49392 1.54252C2.20353 1.32871 1.80054 1.35908 1.54553 1.61408L0.26249 2.8972C0.00748252 3.15221 -0.0228829 3.55528 0.190931 3.84559L2.41632 6.86739C2.68106 7.22683 3.20386 7.26638 3.51952 6.95064L3.8657 6.60438L11.2721 14.0107L10.827 14.4558C10.5421 14.7407 10.5421 15.2025 10.827 15.4874L17.6595 22.32C18.5652 23.2256 20.0335 23.2256 20.9391 22.32C21.8447 21.4143 21.8447 19.946 20.9391 19.0404L14.1066 12.2079Z" fill="white"/>
</g>
<defs>
<clipPath id="clip0">
<rect width="23" height="23" fill="white"/>
</clipPath>
</defs>
</svg>
