<svg width="23" height="23" viewBox="0 0 23 23" fill="none" xmlns="http://www.w3.org/2000/svg">
<g clip-path="url(#clip0)">
<path d="M12.7248 11.0248C12.9898 10.8893 13.285 10.8177 13.5912 10.8177C14.0987 10.8177 14.5758 11.0147 14.9355 11.3725L15.7098 10.5983C17.6259 11.2699 19.842 10.8399 21.3738 9.30825C22.6626 8.01941 23.1709 6.24613 22.8996 4.57461C22.8697 4.39054 22.7394 4.23871 22.562 4.18143C22.3846 4.12408 22.1898 4.17068 22.058 4.30258L20.9083 5.45223C19.9721 6.38846 18.4541 6.38846 17.5178 5.45223C16.5815 4.516 16.5815 2.99796 17.5178 2.06173L18.6675 0.912084C18.7994 0.780186 18.8464 0.585439 18.789 0.407954C18.7316 0.230391 18.5795 0.100376 18.3954 0.0704814C16.7239 -0.200846 14.9506 0.307442 13.6618 1.59629C12.1073 3.15081 11.6889 5.40994 12.4039 7.34525L10.7246 9.02453L12.7248 11.0248Z" fill="#6042CB"/>
<path d="M9.66613 14.0674L7.67433 12.0756L0.709495 19.0403C-0.196134 19.946 -0.196134 21.4142 0.709495 22.3199C1.61512 23.2255 3.08342 23.2255 3.98904 22.3199L9.99317 16.3158C9.38758 15.707 9.27844 14.7879 9.66613 14.0674Z" fill="#6042CB"/>
<path d="M14.1075 12.2076C13.9651 12.0652 13.7784 11.994 13.5917 11.994C13.405 11.994 13.2183 12.0652 13.0759 12.2076L12.6601 12.6234L5.25376 5.21707L5.59994 4.87089C5.91537 4.55554 5.87621 4.03242 5.51669 3.76769L2.4949 1.54222C2.2045 1.3284 1.80151 1.35877 1.54651 1.61378L0.263466 2.89689C0.00845908 3.1519 -0.0219064 3.55497 0.191907 3.84529L2.4173 6.86708C2.68203 7.22652 3.20484 7.26607 3.5205 6.95033L3.86668 6.60407L11.273 14.0104L10.828 14.4555C10.5431 14.7404 10.5431 15.2022 10.828 15.4871L17.6605 22.3197C18.5662 23.2253 20.0344 23.2253 20.9401 22.3197C21.8457 21.414 21.8457 19.9457 20.9401 19.0401L14.1075 12.2076Z" fill="#6042CB"/>
</g>
<defs>
<clipPath id="clip0">
<rect width="23" height="23" fill="white"/>
</clipPath>
</defs>
</svg>
