<svg width="26" height="26" viewBox="0 0 26 26" fill="none" xmlns="http://www.w3.org/2000/svg">
<path d="M8.12976 23.27C6.33967 22.4307 4.79953 21.1426 3.66047 19.5321C2.5214 17.9215 1.82255 16.0439 1.63248 14.0833H0C0.555044 20.7567 6.1599 26 13.0054 26L13.7237 25.9675L9.57723 21.84L8.12976 23.27ZM9.09837 16.2067C8.89159 16.2067 8.69569 16.1742 8.53244 16.12C8.36989 16.0663 8.22124 15.9775 8.09711 15.86C7.9774 15.7517 7.87945 15.6217 7.81415 15.4592C7.74885 15.3075 7.7162 15.1342 7.7162 14.95H6.30138C6.30138 15.34 6.37756 15.6867 6.52993 15.9792C6.68229 16.2717 6.88907 16.5208 7.13939 16.7267C7.40059 16.9217 7.69443 17.0733 8.03181 17.1708C8.35831 17.2792 8.70657 17.3333 9.0766 17.3333C9.47928 17.3333 9.86019 17.2792 10.1976 17.1708C10.5458 17.0625 10.8506 16.9 11.1009 16.6942C11.3512 16.4883 11.558 16.2283 11.6995 15.9142C11.8409 15.6 11.9171 15.2533 11.9171 14.8633C11.9171 14.6575 11.8954 14.4517 11.8409 14.2567C11.7893 14.0598 11.7047 13.873 11.5906 13.7042C11.4818 13.5308 11.3294 13.3792 11.1553 13.2383C10.9703 13.0975 10.7526 12.9892 10.4914 12.9025C10.8848 12.728 11.2206 12.4463 11.46 12.09C11.5689 11.9275 11.645 11.765 11.6995 11.5917C11.7539 11.4183 11.7756 11.245 11.7756 11.0717C11.7756 10.6817 11.7103 10.335 11.5797 10.0317C11.4587 9.74118 11.2682 9.48455 11.0247 9.28417C10.807 9.07833 10.5132 8.92667 10.1867 8.81833C9.84931 8.72083 9.47928 8.66667 9.0766 8.66667C8.6848 8.66667 8.32566 8.72083 7.98828 8.84C7.66178 8.95917 7.36794 9.12167 7.12851 9.3275C6.89996 9.53333 6.71494 9.77167 6.57346 10.0533C6.44286 10.335 6.37756 10.6383 6.37756 10.9742H7.79238C7.79238 10.79 7.82503 10.6275 7.89033 10.4867C7.95563 10.3458 8.0427 10.2158 8.16241 10.1183C8.28213 10.0208 8.41272 9.93417 8.57597 9.88C8.73922 9.82583 8.90247 9.79333 9.09837 9.79333C9.5337 9.79333 9.86019 9.90167 10.067 10.1292C10.2738 10.3458 10.3826 10.66 10.3826 11.0608C10.3826 11.2558 10.3499 11.4292 10.2955 11.5917C10.2414 11.7466 10.1476 11.8847 10.0234 11.9925C9.90373 12.1008 9.75136 12.1875 9.57723 12.2525C9.4031 12.3175 9.18543 12.35 8.946 12.35H8.108V13.4658H8.946C9.18543 13.4658 9.4031 13.4875 9.599 13.5417C9.79489 13.5958 9.95814 13.6825 10.0887 13.7908C10.2193 13.91 10.3282 14.0508 10.4044 14.2242C10.4805 14.3975 10.5132 14.6033 10.5132 14.8417C10.5132 15.2858 10.3826 15.6217 10.1323 15.8492C9.88196 16.0983 9.5337 16.2067 9.09837 16.2067ZM18.4035 9.79333C18.0553 9.43583 17.6417 9.15417 17.1628 8.95917C16.6949 8.76417 16.1616 8.66667 15.5739 8.66667H13.0054V17.3333H15.5086C16.1072 17.3333 16.6622 17.2358 17.1519 17.0408C17.6417 16.8458 18.0661 16.575 18.4144 16.2175C18.7627 15.86 19.0347 15.4267 19.2198 14.9283C19.4048 14.4192 19.5027 13.8558 19.5027 13.2275V12.7942C19.5027 12.1658 19.4048 11.6025 19.2198 11.0933C19.0239 10.5842 18.7518 10.1508 18.4035 9.79333ZM17.9791 13.2167C17.9791 13.6717 17.9247 14.0725 17.8267 14.4408C17.7179 14.7983 17.5655 15.1125 17.3587 15.3617C17.1519 15.6108 16.8907 15.8058 16.586 15.9358C16.2704 16.0658 15.9113 16.1308 15.5086 16.1308H14.5182V9.88H15.5739C16.3575 9.88 16.956 10.1292 17.3587 10.6275C17.7723 11.1258 17.9791 11.8408 17.9791 12.7833V13.2167ZM13.0054 0L12.2871 0.0325L16.4337 4.16L17.8811 2.71917C21.4399 4.39833 23.9866 7.8325 24.3675 11.9058H26C25.4558 5.24333 19.851 0 13.0054 0Z" fill="white"/>
</svg>
