<svg width="27" height="26" viewBox="0 0 27 26" fill="none" xmlns="http://www.w3.org/2000/svg">
<path fill-rule="evenodd" clip-rule="evenodd" d="M16.2089 1.70625C15.5368 -0.56875 12.3081 -0.56875 11.6359 1.70625L11.4732 2.25875C11.3728 2.59934 11.1973 2.91317 10.9596 3.17722C10.7219 3.44127 10.428 3.64885 10.0995 3.78473C9.77102 3.92061 9.41623 3.98135 9.06117 3.96249C8.7061 3.94363 8.35976 3.84566 8.04755 3.67575L7.54306 3.3995C5.45512 2.26525 3.1719 4.54513 4.30944 6.62837L4.58447 7.13375C5.31029 8.46625 4.6219 10.1254 3.16539 10.5544L2.61208 10.7169C0.333734 11.388 0.333734 14.612 2.61208 15.2831L3.16539 15.4456C3.50648 15.5459 3.82077 15.7211 4.08521 15.9585C4.34965 16.1958 4.55753 16.4893 4.69361 16.8173C4.82969 17.1453 4.89052 17.4996 4.87163 17.8541C4.85275 18.2087 4.75463 18.5545 4.58447 18.8662L4.30782 19.37C3.1719 21.4549 5.45512 23.7347 7.54144 22.5989L8.04755 22.3242C8.35976 22.1543 8.7061 22.0564 9.06117 22.0375C9.41623 22.0187 9.77102 22.0794 10.0995 22.2153C10.428 22.3512 10.7219 22.5587 10.9596 22.8228C11.1973 23.0868 11.3728 23.4007 11.4732 23.7412L11.6359 24.2937C12.3081 26.5687 15.5368 26.5687 16.2089 24.2937L16.3716 23.7412C16.4721 23.4007 16.6476 23.0868 16.8853 22.8228C17.123 22.5587 17.4168 22.3512 17.7453 22.2153C18.0738 22.0794 18.4286 22.0187 18.7837 22.0375C19.1387 22.0564 19.4851 22.1543 19.7973 22.3242L20.3018 22.6005C22.3897 23.7348 24.6729 21.4549 23.5354 19.3716L23.2604 18.8662C23.0902 18.5545 22.9921 18.2087 22.9732 17.8541C22.9543 17.4996 23.0152 17.1453 23.1512 16.8173C23.2873 16.4893 23.4952 16.1958 23.7596 15.9585C24.0241 15.7211 24.3384 15.5459 24.6795 15.4456L25.2328 15.2831C27.5111 14.612 27.5111 11.388 25.2328 10.7169L24.6795 10.5544C24.3384 10.4541 24.0241 10.2789 23.7596 10.0415C23.4952 9.80416 23.2873 9.51072 23.1512 9.1827C23.0152 8.85469 22.9543 8.50042 22.9732 8.14587C22.9921 7.79133 23.0902 7.4455 23.2604 7.13375L23.537 6.63C24.6729 4.54512 22.3897 2.26525 20.3034 3.40112L19.7973 3.67575C19.4851 3.84566 19.1387 3.94363 18.7837 3.96249C18.4286 3.98135 18.0738 3.92061 17.7453 3.78473C17.4168 3.64885 17.123 3.44127 16.8853 3.17722C16.6476 2.91317 16.4721 2.59934 16.3716 2.25875L16.2089 1.70625V1.70625ZM13.9224 17.7613C15.187 17.7613 16.3999 17.2596 17.2941 16.3667C18.1883 15.4738 18.6907 14.2628 18.6907 13C18.6907 11.7372 18.1883 10.5262 17.2941 9.63329C16.3999 8.74038 15.187 8.23875 13.9224 8.23875C12.6582 8.23875 11.4458 8.74021 10.5519 9.63281C9.658 10.5254 9.15581 11.736 9.15581 12.9984C9.15581 14.2607 9.658 15.4713 10.5519 16.3639C11.4458 17.2565 12.6582 17.758 13.9224 17.758V17.7613Z" fill="#0094E8"/>
</svg>
