<svg width="27" height="26" viewBox="0 0 27 26" fill="none" xmlns="http://www.w3.org/2000/svg">
<path d="M26.0456 9.15534L18.2399 7.96913L14.7506 0.57222C14.6553 0.369697 14.4985 0.20575 14.3048 0.106095C13.819 -0.144647 13.2288 0.064305 12.9859 0.57222L9.49653 7.96913L1.69082 9.15534C1.47562 9.18749 1.27886 9.29357 1.12822 9.4543C0.946104 9.65003 0.845749 9.91336 0.849208 10.1864C0.852666 10.4595 0.959656 10.7199 1.14667 10.9105L6.7942 16.668L5.45995 24.7978C5.42866 24.987 5.44867 25.1815 5.51772 25.3593C5.58677 25.5371 5.70208 25.6912 5.8506 25.8039C5.99911 25.9167 6.17487 25.9837 6.35796 25.9974C6.54104 26.011 6.72412 25.9708 6.88643 25.8812L13.8682 22.0429L20.85 25.8812C21.0406 25.9873 21.262 26.0226 21.4741 25.984C22.009 25.8876 22.3687 25.3572 22.2765 24.7978L20.9422 16.668L26.5898 10.9105C26.7435 10.753 26.845 10.5473 26.8757 10.3223C26.9587 9.75969 26.5836 9.23892 26.0456 9.15534V9.15534Z" fill="#FA9334"/>
</svg>
