<svg width="26" height="26" viewBox="0 0 26 26" fill="none" xmlns="http://www.w3.org/2000/svg">
<circle cx="13" cy="13" r="12.1333" fill="#9B479F"/>
<path d="M13 0C5.8318 0 0 5.8318 0 13C0 20.1682 5.8318 26 13 26C20.1682 26 26 20.1682 26 13C26 5.8318 20.1682 0 13 0ZM13 24.7C7.2657 24.7 1.3 18.7343 1.3 13C1.3 7.2657 7.2657 1.3 13 1.3C18.7343 1.3 24.7 7.2657 24.7 13C24.7 18.7343 18.7343 24.7 13 24.7Z" fill="white"/>
<path d="M12.9999 5.19995C11.6441 5.20167 10.3443 5.74104 9.38556 6.69977C8.42683 7.65849 7.88746 8.95831 7.88574 10.3142H10.4857C10.4857 8.92705 11.6141 7.79995 12.9999 7.79995C14.3857 7.79995 15.5141 8.92705 15.5141 10.3142C15.5141 11.0916 14.8888 11.6558 13.9333 12.428C13.6212 12.6725 13.3214 12.9324 13.035 13.2067C11.7376 14.5028 11.6999 15.8795 11.6999 16.0329V16.9H14.2999L14.2986 16.0771C14.2999 16.0563 14.3415 15.5753 14.8719 15.0462C15.0669 14.8512 15.3126 14.6562 15.5674 14.4508C16.5801 13.6305 18.1128 12.3916 18.1128 10.3142C18.1118 8.95832 17.5728 7.6583 16.6142 6.69947C15.6557 5.74063 14.3558 5.20133 12.9999 5.19995ZM11.6999 18.2H14.2999V20.8H11.6999V18.2Z" fill="white"/>
</svg>
