<svg width="25" height="25" viewBox="0 0 25 25" fill="none" xmlns="http://www.w3.org/2000/svg">
<path d="M6.771 8.44759C5.84391 8.44759 5.09391 7.69759 5.09391 6.77051C5.09391 6.32572 5.27061 5.89915 5.58512 5.58463C5.89963 5.27012 6.32621 5.09342 6.771 5.09342C7.69808 5.09342 8.44808 5.84343 8.44808 6.77051C8.44808 7.2153 8.27139 7.64187 7.95687 7.95639C7.64236 8.2709 7.21579 8.44759 6.771 8.44759V8.44759ZM6.771 2.08301C4.16683 2.08301 2.0835 4.16634 2.0835 6.77051C2.0835 10.2809 6.771 15.4788 6.771 15.4788C6.771 15.4788 11.4585 10.2809 11.4585 6.77051C11.4585 4.16634 9.37516 2.08301 6.771 2.08301ZM18.2293 8.44759C17.7845 8.44759 17.358 8.2709 17.0435 7.95639C16.7289 7.64187 16.5522 7.2153 16.5522 6.77051C16.5522 6.55027 16.5956 6.33219 16.6799 6.12872C16.7642 5.92524 16.8877 5.74036 17.0435 5.58463C17.1992 5.4289 17.3841 5.30537 17.5875 5.22109C17.791 5.1368 18.0091 5.09342 18.2293 5.09342C18.4496 5.09342 18.6677 5.1368 18.8711 5.22109C19.0746 5.30537 19.2595 5.4289 19.4152 5.58463C19.5709 5.74036 19.6945 5.92524 19.7788 6.12872C19.863 6.33219 19.9064 6.55027 19.9064 6.77051C19.9064 7.2153 19.7297 7.64187 19.4152 7.95639C19.1007 8.2709 18.6741 8.44759 18.2293 8.44759ZM18.2293 2.08301C15.6252 2.08301 13.5418 4.16634 13.5418 6.77051C13.5418 10.2809 18.2293 15.4788 18.2293 15.4788C18.2293 15.4788 22.9168 10.2809 22.9168 6.77051C22.9168 4.16634 20.8335 2.08301 18.2293 2.08301V2.08301ZM18.2293 16.6663C16.9064 16.6663 15.7293 17.4997 15.2918 18.7497H9.7085C9.43248 17.9701 8.85867 17.3317 8.1128 16.9743C7.36693 16.617 6.50984 16.57 5.72933 16.8434C5.34139 16.9794 4.98405 17.1904 4.67774 17.4645C4.37142 17.7387 4.12213 18.0705 3.94413 18.441C3.76612 18.8115 3.66289 19.2135 3.64033 19.6239C3.61778 20.0344 3.67633 20.4452 3.81266 20.833C4.09242 21.6147 4.6701 22.2539 5.41955 22.611C6.169 22.9682 7.02933 23.0143 7.81266 22.7393C8.69808 22.4268 9.37516 21.7184 9.7085 20.833H15.3022C15.8752 22.458 17.6668 23.3122 19.271 22.7393C19.6601 22.6047 20.0188 22.3946 20.3265 22.121C20.6341 21.8474 20.8847 21.5157 21.0638 21.145C21.2429 20.7743 21.3469 20.3718 21.37 19.9607C21.393 19.5497 21.3346 19.1381 21.1981 18.7497C20.7502 17.4997 19.5627 16.6663 18.2293 16.6663ZM18.2293 21.3538C17.8149 21.3538 17.4175 21.1892 17.1245 20.8962C16.8315 20.6032 16.6668 20.2057 16.6668 19.7913C16.6668 19.3769 16.8315 18.9795 17.1245 18.6865C17.4175 18.3935 17.8149 18.2288 18.2293 18.2288C18.6437 18.2288 19.0412 18.3935 19.3342 18.6865C19.6272 18.9795 19.7918 19.3769 19.7918 19.7913C19.7918 20.2057 19.6272 20.6032 19.3342 20.8962C19.0412 21.1892 18.6437 21.3538 18.2293 21.3538Z" fill="white"/>
</svg>
